<svg width="22" height="19" viewBox="0 0 22 19" fill="none" xmlns="http://www.w3.org/2000/svg">
<path d="M1 1H4.07814L7.92205 13H18" stroke="#6B6969" stroke-width="2" stroke-linecap="round"/>
<path fill-rule="evenodd" clip-rule="evenodd" d="M9 19C10.1046 19 11 18.1046 11 17C11 15.8954 10.1046 15 9 15C7.89543 15 7 15.8954 7 17C7 18.1046 7.89543 19 9 19Z" fill="#6B6969"/>
<path fill-rule="evenodd" clip-rule="evenodd" d="M16 19C17.1046 19 18 18.1046 18 17C18 15.8954 17.1046 15 16 15C14.8954 15 14 15.8954 14 17C14 18.1046 14.8954 19 16 19Z" fill="#6B6969"/>
<path d="M7 10V11L5.25 4H20.557L18.307 10H7Z" stroke="#6B6969" stroke-width="2"/>
</svg>
