<svg width="80" height="47" viewBox="0 0 80 47" fill="none" xmlns="http://www.w3.org/2000/svg">
<path d="M16.7725 28.2275C16.7725 28.7256 16.5967 29.1406 16.2451 29.4727C15.8936 29.8242 15.4785 30 15 30H14.9561C14.4775 30 14.0625 29.8242 13.7109 29.4727C13.3594 29.1406 13.1836 28.7256 13.1836 28.2275V21.6943H5.2002V28.2275C5.2002 28.7256 5.02441 29.1406 4.67285 29.4727C4.32129 29.8242 3.90625 30 3.42773 30H3.38379C2.90527 30 2.49023 29.8242 2.13867 29.4727C1.78711 29.1406 1.61133 28.7256 1.61133 28.2275V14.6924C1.61133 12.6025 2.35352 10.8154 3.83789 9.33105C5.32227 7.85645 7.10449 7.11914 9.18457 7.11914C11.2744 7.11914 13.0615 7.85645 14.5459 9.33105C16.0303 10.8154 16.7725 12.6025 16.7725 14.6924V28.2275ZM13.1836 18.1201V14.6924C13.1836 13.5889 12.7979 12.6465 12.0264 11.8652C11.2451 11.084 10.2979 10.6934 9.18457 10.6934C8.08105 10.6934 7.13867 11.084 6.35742 11.8652C5.58594 12.6465 5.2002 13.5889 5.2002 14.6924V18.1201H13.1836ZM31.0107 7.11914C34.165 7.11914 36.8652 8.2373 39.1113 10.4736C41.3477 12.71 42.4658 15.4053 42.4658 18.5596C42.4658 21.7139 41.3477 24.4092 39.1113 26.6455C36.8652 28.8818 34.165 30 31.0107 30C27.8564 30 25.1611 28.8818 22.9248 26.6455C20.6885 24.4092 19.5703 21.7139 19.5703 18.5596C19.5703 15.4053 20.6885 12.71 22.9248 10.4736C25.1611 8.2373 27.8564 7.11914 31.0107 7.11914ZM31.0107 10.6934C28.8428 10.6934 26.9922 11.46 25.459 12.9932C23.9258 14.5264 23.1592 16.3818 23.1592 18.5596C23.1592 20.7373 23.9258 22.5928 25.459 24.126C26.9922 25.6494 28.8428 26.4111 31.0107 26.4111C33.1885 26.4111 35.0439 25.6494 36.5771 24.126C38.1104 22.5928 38.877 20.7373 38.877 18.5596C38.877 16.3818 38.1104 14.5264 36.5771 12.9932C35.0439 11.46 33.1885 10.6934 31.0107 10.6934ZM52.8809 18.1934C53.916 18.1934 54.7998 17.832 55.5322 17.1094C56.2646 16.377 56.6309 15.4932 56.6309 14.458C56.6309 13.4131 56.2646 12.5244 55.5322 11.792C54.7998 11.0693 53.916 10.708 52.8809 10.708H51.1963C50.4639 10.708 49.8926 10.9082 49.4824 11.3086C49.1602 11.6309 48.9551 12.0117 48.8672 12.4512C48.8477 12.5586 48.8379 12.7295 48.8379 12.9639V18.1934H52.8809ZM56.6309 25.5176C56.6309 24.4824 56.2646 23.5986 55.5322 22.8662C54.8682 22.1924 54.0771 21.8311 53.1592 21.7822H48.8379V28.2275C48.8379 28.7158 48.667 29.1309 48.3252 29.4727C47.9736 29.8242 47.5537 30 47.0654 30H47.0361C46.5381 30 46.123 29.8242 45.791 29.4727C45.4395 29.1406 45.2637 28.7256 45.2637 28.2275V12.832C45.2637 11.2598 45.8203 9.91699 46.9336 8.80371C48.0566 7.68066 49.4043 7.11914 50.9766 7.11914H52.8809C54.9023 7.11914 56.626 7.83691 58.0518 9.27246C59.4873 10.708 60.2051 12.4365 60.2051 14.458C60.2051 16.4697 59.4873 18.1934 58.0518 19.6289L57.7148 19.9805L58.0664 20.3467C59.4922 21.7725 60.2051 23.4961 60.2051 25.5176V28.2275C60.2051 28.7256 60.0293 29.1406 59.6777 29.4727C59.3262 29.8242 58.9111 30 58.4326 30H58.4033C57.9248 30 57.5098 29.8242 57.1582 29.4727C56.8066 29.1406 56.6309 28.7256 56.6309 28.2275V25.5176ZM77.8564 28.2275C77.8564 28.7256 77.6807 29.1406 77.3291 29.4727C76.9775 29.8242 76.5625 30 76.084 30H76.04C75.5615 30 75.1465 29.8242 74.7949 29.4727C74.4434 29.1406 74.2676 28.7256 74.2676 28.2275V21.6943H66.2842V28.2275C66.2842 28.7256 66.1084 29.1406 65.7568 29.4727C65.4053 29.8242 64.9902 30 64.5117 30H64.4678C63.9893 30 63.5742 29.8242 63.2227 29.4727C62.8711 29.1406 62.6953 28.7256 62.6953 28.2275V14.6924C62.6953 12.6025 63.4375 10.8154 64.9219 9.33105C66.4062 7.85645 68.1885 7.11914 70.2686 7.11914C72.3584 7.11914 74.1455 7.85645 75.6299 9.33105C77.1143 10.8154 77.8564 12.6025 77.8564 14.6924V28.2275ZM74.2676 18.1201V14.6924C74.2676 13.5889 73.8818 12.6465 73.1104 11.8652C72.3291 11.084 71.3818 10.6934 70.2686 10.6934C69.165 10.6934 68.2227 11.084 67.4414 11.8652C66.6699 12.6465 66.2842 13.5889 66.2842 14.6924V18.1201H74.2676Z" fill="#00B6B8"/>
<path d="M1.22835 34.42H4.98535C6.00802 34.42 6.77069 34.6237 7.27335 35.031C7.77602 35.4297 8.02735 36.006 8.02735 36.76C8.02735 37.2367 7.88435 37.6527 7.59835 38.008C7.31235 38.3547 6.90935 38.5713 6.38935 38.658V38.671C6.97868 38.7577 7.43368 38.983 7.75435 39.347C8.08369 39.7023 8.24835 40.1357 8.24835 40.647C8.24835 41.3923 7.97969 41.973 7.44235 42.389C6.90502 42.7963 6.12935 43 5.11535 43H1.22835V34.42ZM4.73835 38.021C5.69169 38.021 6.16835 37.6527 6.16835 36.916C6.16835 36.1793 5.69169 35.811 4.73835 35.811H2.97035V38.021H4.73835ZM4.95935 41.648C5.43602 41.648 5.79135 41.5527 6.02535 41.362C6.26802 41.1627 6.38935 40.881 6.38935 40.517C6.38935 40.153 6.26802 39.8757 6.02535 39.685C5.79135 39.4943 5.43602 39.399 4.95935 39.399H2.97035V41.648H4.95935ZM16.5797 41.557V43H9.96273V34.42H16.3977V35.863H11.7567V37.995H15.4097V39.373H11.7567V41.557H16.5797ZM24.9753 35.863H22.1023V43H20.3083V35.863H17.4223V34.42H24.9753V35.863ZM30.161 40.907H26.859L26.157 43H24.324L27.457 34.42H29.602L32.735 43H30.876L30.161 40.907ZM29.719 39.581L28.913 37.163L28.523 35.863H28.497L28.133 37.137L27.301 39.581H29.719Z" fill="#00B6B8"/>
</svg>
