<svg width="30" height="21" viewBox="0 0 30 21" fill="none" xmlns="http://www.w3.org/2000/svg">
<path d="M4.63086 1H18.6309V17H4.63086V13.0014H3.63086V4.98257H4.63086V4.96583V4.9491V4.93239V4.9157V4.89903V4.88237V4.86573V4.84911V4.8325V4.81591V4.79934V4.78279V4.76625V4.74974V4.73324V4.71675V4.70029V4.68384V4.66741V4.651V4.63461V4.61823V4.60188V4.58554V4.56922V4.55292V4.53663V4.52037V4.50412V4.4879V4.47169V4.4555V4.43933V4.42317V4.40704V4.39093V4.37483V4.35875V4.3427V4.32666V4.31064V4.29464V4.27866V4.2627V4.24676V4.23084V4.21494V4.19906V4.18319V4.16735V4.15153V4.13573V4.11995V4.10418V4.08844V4.07272V4.05702V4.04134V4.02568V4.01004V3.99442V3.97882V3.96324V3.94769V3.93215V3.91663V3.90114V3.88566V3.87021V3.85478V3.83937V3.82398V3.80861V3.79327V3.77794V3.76264V3.74735V3.73209V3.71686V3.70164V3.68644V3.67127V3.65612V3.64099V3.62588V3.6108V3.59573V3.58069V3.56567V3.55068V3.5357V3.52075V3.50582V3.49091V3.47603V3.46117V3.44633V3.43152V3.41672V3.40195V3.38721V3.37248V3.35778V3.34311V3.32845V3.31382V3.29922V3.28463V3.27007V3.25554V3.24102V3.22653V3.21207V3.19763V3.18321V3.16882V3.15445V3.1401V3.12578V3.11148V3.09721V3.08296V3.06874V3.05454V3.04036V3.02621V3.01209V2.99798V2.98391V2.96986V2.95583V2.94183V2.92785V2.9139V2.89997V2.88607V2.8722V2.85835V2.84452V2.83072V2.81695V2.8032V2.78947V2.77578V2.7621V2.74846V2.73484V2.72125V2.70768V2.69414V2.68062V2.66713V2.65367V2.64023V2.62682V2.61343V2.60008V2.58675V2.57344V2.56016V2.54691V2.53369V2.52049V2.50732V2.49418V2.48106V2.46797V2.45491V2.44188V2.42887V2.41589V2.40294V2.39001V2.37711V2.36424V2.3514V2.33859V2.3258V2.31304V2.30031V2.28761V2.27493V2.26229V2.24967V2.23708V2.22452V2.21198V2.19948V2.187V2.17455V2.16213V2.14974V2.13738V2.12505V2.11274V2.10047V2.08822V2.076V2.06382V2.05166V2.03953V2.02743V2.01535V2.00331V1.9913V1.97932V1.96737V1.95544V1.94355V1.93168V1.91985V1.90805V1.89627V1.88453V1.87281V1.86113V1.84948V1.83785V1.82626V1.8147V1.80317V1.79166V1.78019V1.76875V1.75734V1.74597V1.73462V1.7233V1.71202V1.70076V1.68954V1.67834V1.66718V1.65605V1.64495V1.63389V1.62285V1.61185V1.60087V1.58993V1.57902V1.56815V1.5573V1.54649V1.5357V1.52495V1.51424V1.50355V1.4929V1.48228V1.47169V1.46113V1.45061V1.44012V1.42966V1.41923V1.40884V1.39848V1.38815V1.37786V1.36759V1.35737V1.34717V1.33701V1.32688V1.31678V1.30672V1.29669V1.28669V1.27673V1.2668V1.25691V1.24705V1.23722V1.22743V1.21767V1.20794V1.19825V1.18859V1.17897V1.16938V1.15982V1.1503V1.14081V1.13136V1.12194V1.11256V1.10321V1.0939V1.08462V1.07538V1.06617V1.05699V1.04785V1.03875V1.02968V1.02065V1.01165V1.00269V1Z" stroke="#6B6969" stroke-width="2"/>
<path d="M18.6309 11H25.6309C27.2877 11 28.6309 12.3431 28.6309 14C28.6309 15.6569 27.2877 17 25.6309 17H18.6309V11Z" stroke="#6B6969" stroke-width="2"/>
<path d="M18.6309 6H22.6309C24.2877 6 25.6309 7.34315 25.6309 9V11H18.6309V6Z" stroke="#6B6969" stroke-width="2"/>
<path fill-rule="evenodd" clip-rule="evenodd" d="M10.6309 21C12.2877 21 13.6309 19.6569 13.6309 18C13.6309 16.3431 12.2877 15 10.6309 15C8.97401 15 7.63086 16.3431 7.63086 18C7.63086 19.6569 8.97401 21 10.6309 21Z" fill="#6B6969"/>
<path fill-rule="evenodd" clip-rule="evenodd" d="M22.6309 21C24.2877 21 25.6309 19.6569 25.6309 18C25.6309 16.3431 24.2877 15 22.6309 15C20.974 15 19.6309 16.3431 19.6309 18C19.6309 19.6569 20.974 21 22.6309 21Z" fill="#6B6969"/>
<path d="M7.63086 5.17925L13.7441 9L7.63086 12.8208V5.17925Z" stroke="#6B6969" stroke-width="2" stroke-linecap="round"/>
<path fill-rule="evenodd" clip-rule="evenodd" d="M0 8.9314H12.6311H0Z" fill="#6B6969"/>
<path d="M0 8.9314H12.6311" stroke="#6B6969" stroke-width="2"/>
</svg>
