<svg width="19" height="20" viewBox="0 0 19 20" fill="none" xmlns="http://www.w3.org/2000/svg">
<path d="M13.8599 13.0683C13.6505 12.8603 13.3674 12.7437 13.0723 12.7437H12.7803C12.7071 12.7437 12.6363 12.718 12.5801 12.6711C12.4483 12.5611 12.4306 12.3656 12.5345 12.2289C13.4511 11.0216 14.0204 9.53476 14.0204 7.85795C14.0203 3.94924 10.8803 0.800781 6.98324 0.800781C3.13955 0.800781 0 3.94924 0 7.85795C0 11.7667 3.13955 14.9151 7.03718 14.9151C8.67285 14.9151 10.2119 14.3342 11.4264 13.4014C11.551 13.3057 11.7257 13.3055 11.8462 13.4062C11.9202 13.4681 11.9629 13.5596 11.9629 13.656V13.9647C11.9629 14.2257 12.0664 14.4761 12.2507 14.6609L16.5638 18.9862C17.0121 19.4357 17.7401 19.4357 18.1884 18.9862C18.6363 18.5369 18.6345 17.8093 18.1843 17.3623L13.8599 13.0683ZM7.03718 12.7437C4.33057 12.7437 2.16531 10.5722 2.16531 7.85795C2.16531 5.14362 4.33057 2.97227 7.03718 2.97227C9.74369 2.97227 11.909 5.14362 11.909 7.85795C11.909 10.5722 9.74369 12.7437 7.03718 12.7437Z" fill="#057778"/>
</svg>
