<svg width="85" height="68" viewBox="0 0 85 68" fill="none" xmlns="http://www.w3.org/2000/svg">
<g clip-path="url(#clip0)">
<path d="M42.497 6.48966C41.172 3.17787 37.9438 -0.398833 31.8978 0.0925088C24.1961 0.930594 21.796 8.31869 22.9602 12.7262C19.8927 10.6471 14.6769 9.73286 10.1243 13.6364C4.24614 19.5346 7.39031 27.5111 10.6217 29.4244C7.06041 29.0944 1.43187 31.5032 0.18672 37.8043C-1.13788 45.6276 4.82008 50.1883 10.6217 50.1883H74.9549C81.6637 50.1883 85.3858 44.3788 84.9683 38.8999C84.3102 31.7494 77.7733 29.0059 74.2075 29.5938C77.1866 27.93 81.1653 20.1146 75.1154 13.9706C70.313 9.39813 64.1909 11.0619 62.0383 13.0562C63.1986 9.23642 61.2957 1.34047 53.5067 0.0916585C52.9682 0.0313183 52.4498 -0.000976562 51.9557 -0.000976562C46.0098 -0.0001267 43.3361 4.35068 42.497 6.48966Z" fill="white"/>
<path d="M11.1954 14.8821C7.79894 17.9598 6.56276 24.9335 12.6855 29.0102L37.1121 45.7851L25.2684 18.6244C22.7866 12.2151 15.9971 10.8174 11.1954 14.8821Z" fill="#F37021"/>
<path d="M32.222 1.67641C28.2515 1.75739 22.2893 6.49027 24.9426 13.7175L37.1922 42.6354L41.4966 12.2193C42.4926 4.66161 36.7788 1.1728 32.222 1.67641Z" fill="#CC004C"/>
<path d="M43.4086 11.0593H45.7249C45.7249 11.0593 46.9618 11.0593 47.1301 11.6434C46.2186 12.3885 43.7377 12.4819 44.0671 16.4618L47.9608 42.6314L60.1267 13.6376C62.6152 7.16383 57.3919 1.75725 52.7585 1.59201C52.5421 1.57647 52.3249 1.56384 52.1 1.56384C47.9414 1.56372 43.1757 4.58911 43.4086 11.0593Z" fill="#6460AA"/>
<path d="M59.6368 18.8708L48.1299 45.7057L72.5492 28.8423C78.1782 24.8457 77.2704 18.4562 74.1194 15.2979C72.7985 13.8114 70.373 12.6631 67.8038 12.6631C64.7684 12.6625 61.5199 14.2741 59.6368 18.8708Z" fill="#0089D0"/>
<path d="M69.8155 32.66L46.8828 48.6941H75.1196C80.9127 48.6941 84.6355 42.7152 82.9805 37.2285C81.8721 33.7798 78.5927 31.0726 74.7863 31.0687C73.184 31.0693 71.4849 31.5524 69.8155 32.66Z" fill="#0DB14B"/>
<path d="M10.5377 48.6945H38.3578L15.4193 32.6604C10.12 29.2522 4.16128 31.2464 2.0101 36.9023C0.186646 43.3766 4.73947 48.6945 10.5377 48.6945Z" fill="#FCB711"/>
<path d="M0.0898438 60.2988C0.0898438 63.0296 2.31998 68.0002 10.8354 68.0002C18.6865 68.0002 21.1661 64.3941 21.1661 62.7406H15.0879C15.0879 62.7406 14.7993 64.9251 11.3706 64.9251C7.93966 64.9251 7.0118 62.0585 7.0118 60.401C7.0118 58.7497 7.93966 56.0379 11.3706 56.0379C14.7993 56.0379 15.0879 57.9398 15.0879 57.9398H21.1661C21.1661 56.2843 19.3468 52.7291 10.8354 52.7291C2.31998 52.7291 0.0898438 58.0228 0.0898438 60.2988Z" fill="#292526"/>
<path d="M63.833 60.2988C63.833 63.0296 66.0654 68.0002 74.5786 68.0002C82.4289 68.0002 84.9095 64.3941 84.9095 62.7406H78.8356C78.8356 62.7406 78.5456 64.9251 75.116 64.9251C71.6848 64.9251 70.7559 62.0585 70.7559 60.401C70.7559 58.7497 71.6848 56.0379 75.116 56.0379C78.5456 56.0379 78.8356 57.9398 78.8356 57.9398H84.9095C84.9095 56.2843 83.0921 52.7291 74.5786 52.7291C66.0656 52.7291 63.833 58.0228 63.833 60.2988Z" fill="#292526"/>
<path d="M37.7771 52.9839V62.2281L30.7034 52.9839H22.7461V67.6259H28.2013V58.2755L35.1512 67.6259H43.2326V52.9839H37.7771Z" fill="#292526"/>
<path d="M55.2589 64.1279V64.1472H50.7135V61.4587H55.2589V61.4674C56.2295 61.4674 57.0139 62.0645 57.0139 62.7998C57.0139 63.5332 56.2295 64.1279 55.2589 64.1279ZM50.7552 55.8317H55.135V55.8378C55.877 55.8378 56.4787 56.3265 56.4787 56.928C56.4787 57.5317 55.877 58.0162 55.135 58.0162V58.0227H50.7552V55.8317ZM59.7232 59.8417C60.7163 59.8417 62.7928 58.6877 62.7928 56.4521C62.7928 53.2686 56.8706 52.9839 55.9622 52.9839H45.0508V67.6259H55.9622C61.2101 67.6259 63.3182 65.9664 63.3182 63.1951C63.3182 60.4238 59.7232 59.8417 59.7232 59.8417Z" fill="#292526"/>
</g>
<defs>
<clipPath id="clip0">
<rect width="85" height="68" fill="white"/>
</clipPath>
</defs>
</svg>
