<svg width="108" height="41" viewBox="0 0 108 41" fill="none" xmlns="http://www.w3.org/2000/svg">
<path fill-rule="evenodd" clip-rule="evenodd" d="M1.69715 17.0407V7.91815L0.0771484 7.2519V6.48315H1.56858C2.57143 5.74003 3.78001 4.45878 4.34572 2.6394H5.34858V6.48315H8.02286V7.7644H5.34858V16.0925C5.34858 16.8869 5.47715 17.3994 6.45429 17.3994C7.35429 17.3994 7.89429 17.2457 8.38286 17.1688V17.9888C7.43143 18.6038 6.09429 19.3982 4.37143 19.3982C2.75143 19.3982 1.69715 18.2963 1.69715 17.0407Z" fill="#748A96"/>
<path fill-rule="evenodd" clip-rule="evenodd" d="M8.74331 18.4499L10.1576 17.758V1.40926L8.46045 0.691763V0.0255127H13.809V8.53301C14.8376 7.02114 16.1747 6.09864 17.8719 6.09864C20.289 6.09864 21.8062 7.50801 21.8062 9.19926V17.7324L23.1433 18.4499V19.1161H16.689V18.4499L18.1547 17.758V9.71176C18.1547 8.73801 17.589 8.17426 16.509 8.17426C15.2233 8.17426 14.2719 9.07114 13.7833 9.78864V17.7836L15.2747 18.4755V19.1418H8.74331V18.4499Z" fill="#748A96"/>
<path fill-rule="evenodd" clip-rule="evenodd" d="M23.1943 12.5816C23.1943 8.71226 25.6115 6.09851 29.3658 6.09851C32.7343 6.09851 34.7401 8.25101 34.7401 11.6591V12.5048L26.9743 12.3254V13.0685C26.9743 14.1448 27.1543 15.221 27.3601 15.8104C27.7972 17.1173 28.8258 17.8604 30.2658 17.8604C31.6801 17.8604 32.8629 17.3223 34.1743 15.8873H34.6115V16.9379C33.5315 18.3985 31.8858 19.4748 29.5972 19.4748C25.6886 19.4491 23.1943 17.3223 23.1943 12.5816ZM31.0372 11.1723C31.0372 10.7366 30.9858 9.55789 30.8829 8.96851C30.7286 7.91789 30.1886 7.07226 29.0829 7.07226C28.0801 7.07226 27.4629 7.91789 27.2315 8.99414C27.0772 9.66039 27.0001 10.7366 27.0001 11.4285L31.0372 11.1723Z" fill="#748A96"/>
<path fill-rule="evenodd" clip-rule="evenodd" d="M0.411292 34.0555L1.82558 33.3636V23.4467L0.359863 22.7548V22.063H5.47701V24.113C6.50558 22.6011 7.81701 21.6786 9.53986 21.6786C11.957 21.6786 13.4741 23.088 13.4741 24.7792V33.3123L14.8113 34.0042V34.6705H8.33129V34.0042L9.82272 33.3123V25.2405C9.82272 24.2411 9.23129 23.703 8.15129 23.703C6.86558 23.703 5.93986 24.5998 5.45129 25.3173V33.3123L6.94272 34.0042V34.6705H0.411292V34.0555Z" fill="#F7941E"/>
<path fill-rule="evenodd" clip-rule="evenodd" d="M14.6826 28.1875C14.6826 24.3181 17.0998 21.7043 20.854 21.7043C24.2226 21.7043 26.2283 23.8568 26.2283 27.265V28.1106L18.4626 27.9312V28.6743C18.4626 29.7506 18.6426 30.8268 18.8483 31.4162C19.2855 32.7231 20.314 33.4662 21.754 33.4662C23.1683 33.4662 24.3512 32.9281 25.6626 31.4931H26.0998V32.5437C25.0198 34.0043 23.374 35.0806 21.0855 35.0806C17.1769 35.055 14.6826 32.9281 14.6826 28.1875ZM22.4998 26.7781C22.4998 26.3425 22.4483 25.1637 22.3455 24.5743C22.1912 23.5237 21.6512 22.6781 20.5455 22.6781C19.5426 22.6781 18.9255 23.5237 18.694 24.6C18.5398 25.2662 18.4626 26.3425 18.4626 27.0343L22.4998 26.7781Z" fill="#F7941E"/>
<path fill-rule="evenodd" clip-rule="evenodd" d="M27.1542 23.3956L25.5342 22.755V22.0631H32.2199V22.755L30.9856 23.3956L33.1713 30.75L35.0742 24.6L34.637 23.4212L33.3513 22.755V22.0631H39.857V22.755L38.3913 23.4212L40.5513 30.6219L42.8142 23.4981L41.3485 22.755L41.297 22.0631H45.6427V22.755L44.0485 23.5237L40.397 34.7475H38.0827L35.5885 26.2144L32.9656 34.7475H30.6513L27.1542 23.3956Z" fill="#F7941E"/>
<path fill-rule="evenodd" clip-rule="evenodd" d="M45.874 40.1031L47.5197 39.4368V23.4468L46.054 22.755V22.0631H51.1712V23.575C51.994 22.4731 53.0483 21.7043 54.5655 21.7043C57.8826 21.7043 59.7083 24.5231 59.7083 28.4437C59.7083 32.1593 57.6512 35.0293 54.334 35.0293C52.8169 35.0293 51.8655 34.3118 51.1969 33.2356V39.4112L52.9969 40.0775V40.7693H45.8997V40.1031H45.874ZM55.3112 31.7493C55.6197 30.8268 55.7226 29.6225 55.7226 28.4693C55.7226 27.2137 55.6197 25.9068 55.3626 24.9843C55.0026 23.78 54.2312 23.4212 53.3826 23.4212C52.354 23.4212 51.6083 24.19 51.1969 24.7793V32.0056C51.634 32.6718 52.2769 33.2612 53.3569 33.2612C54.2055 33.3125 54.9255 32.8256 55.3112 31.7493Z" fill="#748A96"/>
<path fill-rule="evenodd" clip-rule="evenodd" d="M60.2744 31.6467C60.2744 28.0592 63.9516 27.0342 67.783 27.0342V24.9073C67.783 23.908 67.1658 22.7292 65.5973 22.7292C64.5173 22.9342 63.4373 23.5748 62.743 24.5486L61.9973 26.3423H61.2516V22.8573C61.9716 22.473 63.9773 21.6786 65.9316 21.6786C69.8916 21.6786 71.4344 23.1136 71.4344 24.7792V33.3636L72.7458 34.0555V34.7217H67.8344V33.1586C66.883 34.4398 65.5716 35.0548 64.0544 35.0548C61.9458 35.0548 60.2744 34.2092 60.2744 31.6467ZM67.783 32.108V27.9823C65.3144 28.0848 64.0544 28.8792 64.0544 31.1598C64.0544 32.7486 64.5944 33.3123 65.7773 33.2867C66.7544 33.2611 67.4487 32.5948 67.783 32.108Z" fill="#748A96"/>
<path fill-rule="evenodd" clip-rule="evenodd" d="M71.8457 40.1031L73.4914 39.4368V23.4468L72.0257 22.755V22.0631H77.1428V23.575C77.9657 22.4731 79.02 21.7043 80.5371 21.7043C83.8543 21.7043 85.68 24.5231 85.68 28.4437C85.68 32.1593 83.6228 35.0293 80.3057 35.0293C78.7886 35.0293 77.8371 34.3118 77.1686 33.2356V39.4112L78.9686 40.0775V40.7693H71.8714V40.1031H71.8457ZM81.2828 31.7493C81.5914 30.8268 81.6943 29.6225 81.6943 28.4693C81.6943 27.2137 81.5914 25.9068 81.3343 24.9843C80.9743 23.78 80.2028 23.4212 79.3543 23.4212C78.3257 23.4212 77.58 24.19 77.1686 24.7793V32.0056C77.6057 32.6718 78.2486 33.2612 79.3286 33.2612C80.1771 33.3125 80.8971 32.8256 81.2828 31.7493Z" fill="#748A96"/>
<path fill-rule="evenodd" clip-rule="evenodd" d="M86.374 28.1875C86.374 24.3181 88.7912 21.7043 92.5455 21.7043C95.914 21.7043 97.9197 23.8568 97.9197 27.265V28.1106L90.154 27.9312V28.6743C90.154 29.7506 90.334 30.8268 90.5397 31.4162C90.9769 32.7231 92.0055 33.4662 93.4455 33.4662C94.8597 33.4662 96.0426 32.9281 97.354 31.4931H97.7912V32.5437C96.7112 34.0043 95.0655 35.0806 92.7769 35.0806C88.8683 35.055 86.374 32.9281 86.374 28.1875ZM94.2169 26.7781C94.2169 26.3425 94.1655 25.1637 94.0626 24.5743C93.9083 23.5237 93.3683 22.6781 92.2626 22.6781C91.2597 22.6781 90.6426 23.5237 90.4112 24.6C90.2569 25.2662 90.1797 26.3425 90.1797 27.0343L94.2169 26.7781Z" fill="#748A96"/>
<path fill-rule="evenodd" clip-rule="evenodd" d="M97.8171 34.0554L99.2313 33.3635V23.4466L97.7656 22.7547V22.0629H102.883V24.5485C104.04 22.7291 105.3 21.7554 106.92 21.7554C107.1 21.7554 107.511 21.7554 107.897 21.8322V26.0604H107.1L106.56 24.651C106.328 24.5741 105.891 24.446 105.428 24.446C104.323 24.446 103.423 24.9841 102.857 25.5991V33.3122L104.708 34.0297V34.696H97.8171V34.0554Z" fill="#748A96"/>
<path fill-rule="evenodd" clip-rule="evenodd" d="M48.1883 7.73862C47.8026 8.14862 47.4426 8.60987 47.2626 9.12237C47.0826 9.558 46.7483 9.8655 46.4655 10.2242C46.1826 10.6086 46.1312 11.0955 45.874 11.4799C45.7198 11.7361 45.4626 11.9155 45.2569 12.1205C44.9998 12.4024 44.8198 12.7611 44.6398 13.1199C44.1769 14.068 43.6626 14.9905 43.1226 15.8874C43.0198 16.0924 42.8398 16.2974 42.6083 16.2717C42.4283 16.2461 42.3255 16.0667 42.2483 15.8874C41.8626 15.093 41.4769 14.273 41.0912 13.4786C41.0655 13.4017 41.014 13.3249 41.014 13.248C41.014 13.1455 41.0655 13.043 41.1426 12.9405C41.374 12.5561 41.6312 12.1717 41.8626 11.813C41.9912 11.608 42.1969 11.3774 42.4283 11.4286C42.6083 11.4799 42.6855 11.6336 42.7369 11.813C42.7626 11.9924 42.7626 12.1461 42.7883 12.3255C42.8912 12.7355 43.4055 13.0174 43.8169 12.838C44.1512 12.7099 44.3569 12.3767 44.5112 12.0436C45.4369 10.378 46.5169 8.81487 47.7512 7.37987C46.6455 6.55987 45.2569 6.073 43.7398 6.073C40.0369 6.073 37.0283 9.07112 37.0283 12.7611C37.0283 16.4511 40.0369 19.4493 43.7398 19.4493C47.4426 19.4493 50.4512 16.4511 50.4512 12.7611C50.4769 10.7624 49.5769 8.96862 48.1883 7.73862Z" fill="#748A96"/>
</svg>
