<svg width="13" height="13" viewBox="0 0 13 13" fill="none" xmlns="http://www.w3.org/2000/svg">
<path d="M12.4323 0.0995749C11.8457 -0.258011 11.1914 0.431619 10.8078 0.840288C9.92789 1.81088 9.18333 2.93472 8.34848 3.95639C7.42341 5.08023 6.56604 6.20407 5.61841 7.30241C5.07691 7.91542 4.49029 8.5795 4.12929 9.34576C3.31704 8.45175 2.6176 7.48116 1.7151 6.68941C1.06079 6.12749 -0.0222155 5.71882 0.000346992 7.07254C0.045472 8.83496 1.42179 10.7251 2.4371 11.9255C2.86579 12.4363 3.42985 12.9727 4.08416 12.9982C4.87385 13.0493 5.6861 11.9766 6.15991 11.3891C6.99476 10.3674 7.67164 9.21801 8.43873 8.17083C9.43148 6.79158 10.4468 5.43782 11.417 4.03302C12.0262 3.16459 13.944 1.01904 12.4323 0.0995749ZM0.993061 6.97037C0.970498 6.97037 0.947936 6.97037 0.902811 6.99587C0.812561 6.97037 0.744873 6.94478 0.654623 6.8937C0.722311 6.84262 0.835123 6.86816 0.993061 6.97037Z" fill="#00B8B6"/>
</svg>
