<svg width="21" height="36" viewBox="0 0 21 36" fill="none" xmlns="http://www.w3.org/2000/svg">
<path d="M20.9977 28.6924C21.0144 28.5176 20.9383 28.3939 20.8293 28.3168C20.7813 28.026 20.5908 27.7599 20.2427 27.7363C18.6679 27.6303 17.1098 27.7128 15.5507 27.9806C14.6138 28.142 13.4195 28.2479 12.5274 28.7649C14.7363 23.4354 18.1336 17.3924 18.3759 11.5001C18.5562 7.11857 16.7348 2.46973 12.8237 0.755858C4.28972 -2.98335 -2.94038 7.94283 1.20059 16.1607C1.21786 16.1955 1.24161 16.2184 1.26427 16.2431C1.34361 16.4292 1.51631 16.5605 1.74027 16.4769C3.14614 15.9523 4.46458 15.6197 5.94115 15.4289C6.34375 15.3771 6.52076 14.9732 6.46248 14.6423C6.72098 14.7136 7.05235 14.4351 6.98057 14.0883C6.68968 13.0927 6.68644 12.0965 6.97032 11.0992C9.71459 9.49421 10.9882 9.89574 10.7907 12.3044C10.8501 13.655 10.59 14.9944 10.2947 16.2979C9.68491 18.9926 8.79336 21.7363 7.76257 24.272C6.39178 27.6445 3.1116 31.3872 4.56172 35.3342C4.69017 35.6845 5.1122 35.7958 5.36261 35.6321C5.44572 35.8506 5.62975 36.0148 5.93089 35.9989C10.5689 35.7546 15.3364 35.6003 19.9388 34.8685C20.3355 35.0946 20.9367 34.8968 20.9006 34.2774C20.7899 32.3822 20.8185 30.5829 20.9977 28.6924ZM16.4903 15.2476C15.7633 15.2682 15.0267 15.3747 14.3062 15.436C14.1664 15.4477 14.1637 15.6844 14.3062 15.6762C15.0002 15.635 15.7131 15.6314 16.4104 15.5584C16.3424 15.8139 16.2717 16.0695 16.1967 16.3256C15.4773 16.4327 14.7854 16.5452 14.0391 16.5175C13.9306 16.5134 13.9371 16.6835 14.0391 16.6971C14.684 16.7825 15.4336 16.7913 16.1071 16.6335C15.9986 16.9897 15.8848 17.3459 15.7644 17.7009C14.2679 17.6838 12.7535 17.8081 11.257 17.9211C11.576 16.7889 11.8393 15.6226 11.9802 14.4675C13.5652 14.4445 15.276 14.3032 16.799 13.8669C16.7094 14.325 16.6079 14.7854 16.4903 15.2476ZM6.16943 14.2455C6.10359 14.2184 6.02857 14.2019 5.94115 14.2037C4.52233 14.2355 3.02633 14.6759 1.76402 15.4165C0.720817 11.5019 0.865991 7.05969 3.6842 4.00286C6.16673 1.31047 10.3595 0.63634 13.3531 2.59161C11.6073 2.45796 9.82792 2.57807 8.09717 2.77707C7.97952 2.79061 7.97574 2.99078 8.09717 2.98136C10.0449 2.82593 11.9543 2.91071 13.8971 2.99314C14.1243 3.17683 14.3451 3.37289 14.5534 3.59073C14.9819 4.03995 15.3462 4.51155 15.6554 5.00257C12.6424 5.07499 9.62716 5.20982 6.61737 5.36113C6.54613 5.36466 6.54505 5.483 6.61737 5.48241C9.68491 5.45356 12.7562 5.40823 15.8222 5.29636C16.0494 5.68965 16.2523 6.09119 16.4153 6.50567C12.5096 6.25957 8.51758 6.87188 4.59086 6.71821C4.47969 6.71409 4.48077 6.89837 4.59086 6.90603C8.57425 7.17215 12.5717 6.57102 16.5318 6.81065C16.6554 7.16096 16.7607 7.51716 16.8443 7.87983C15.1157 7.75973 13.3337 7.80801 11.611 7.87454C11.5112 7.87866 11.5123 8.03644 11.611 8.04292C13.3526 8.15832 15.1567 8.25723 16.9075 8.17951C16.9749 8.51864 17.0327 8.86129 17.0688 9.20984C15.5599 9.24634 14.0957 9.27814 12.576 9.04675C12.4292 9.02438 12.3628 9.26695 12.5134 9.29403C14.0045 9.56368 15.5885 9.72854 17.1066 9.5419C17.1314 9.86689 17.1444 10.1954 17.1444 10.5269C15.8848 10.544 14.6278 10.6411 13.3639 10.6011C13.2333 10.597 13.2344 10.8148 13.3639 10.8219C14.6052 10.8925 15.8945 10.959 17.1438 10.8348C17.1244 11.7509 17.0186 12.6876 16.8449 13.6344C15.2361 13.7545 13.6068 14.0483 12.0007 14.2855C12.1626 12.8166 12.1135 11.3688 11.6672 10.0376C9.74535 4.31078 4.44731 9.72854 6.16943 14.2455ZM19.7473 31.0269C19.7321 31.0216 19.7235 31.0074 19.7052 31.0074C15.5221 31.0145 11.325 31.3118 7.15759 31.6863C7.05666 31.6951 7.05397 31.8664 7.15759 31.86C11.3401 31.6097 15.5205 31.5102 19.7052 31.3495C19.7122 31.3495 19.7143 31.3424 19.7208 31.3413C19.6868 31.7016 19.6474 32.0613 19.6301 32.4222C15.4266 32.6936 11.223 32.968 7.02159 33.2765C6.90394 33.2854 6.90178 33.4838 7.02159 33.4779C11.2198 33.2742 15.4169 33.0363 19.6129 32.7949C19.6015 33.1452 19.5951 33.4949 19.6005 33.8411C15.0844 33.5691 10.4065 34.0419 5.93089 34.5818C5.76521 34.6018 5.64054 34.6825 5.5407 34.7855C5.3761 30.162 8.67409 26.0572 10.0508 21.7563C10.4016 20.6606 10.8155 19.4531 11.1787 18.1984C12.671 18.1649 14.1821 18.1419 15.6662 17.9871C15.4881 18.4993 15.3003 19.0097 15.1044 19.5161C14.3062 19.6638 13.5166 19.7657 12.6893 19.7327C12.5539 19.7274 12.5549 19.9547 12.6893 19.9617C13.4465 20.0012 14.2306 19.97 14.9867 19.8175C14.8124 20.2608 14.6338 20.7012 14.4514 21.1369C13.1162 21.2364 11.7756 21.4148 10.4415 21.5349C10.3331 21.5443 10.3341 21.7316 10.4415 21.7192C10.5381 21.7056 10.6353 21.6986 10.7324 21.6927C10.747 21.7051 10.754 21.7139 10.7718 21.7274C10.992 21.7257 11.2122 21.7192 11.4324 21.708C11.8172 21.6921 12.202 21.6668 12.5862 21.6362C13.1653 21.5903 13.7487 21.5431 14.3229 21.4413C14.1146 21.9341 13.9031 22.421 13.691 22.9002C12.9538 22.9727 12.2203 23.0168 11.4745 22.9797C11.3504 22.9732 11.352 23.1799 11.4745 23.1893C12.1712 23.2429 12.8723 23.2517 13.5674 23.1793C13.3812 23.5985 13.195 24.0112 13.0115 24.4169C12.1378 24.4575 11.2489 24.5935 10.3897 24.6942C10.2807 24.7071 10.2759 24.8914 10.3897 24.8844C11.2046 24.8349 12.0514 24.8149 12.8755 24.7171C12.7114 25.0786 12.5495 25.436 12.3919 25.7852C11.474 26.0589 10.5878 26.2338 9.57805 26.1625C9.46472 26.1543 9.4685 26.3404 9.57805 26.3527C10.427 26.4505 11.3622 26.4128 12.2225 26.1625C11.971 26.7225 11.7303 27.2653 11.5101 27.7828C10.5144 27.9382 9.53218 28.0295 8.50679 27.9965C8.40209 27.993 8.40371 28.1655 8.50679 28.1732C9.45716 28.2426 10.4361 28.222 11.3892 28.0701C11.3185 28.2385 11.2484 28.4069 11.1825 28.5706C10.9791 29.0751 11.3142 29.5385 11.6839 29.6392C11.6833 29.6945 11.7001 29.7457 11.7298 29.7887C10.3455 29.88 8.96066 29.9282 7.56019 29.8376C7.47816 29.8323 7.48031 29.9671 7.56019 29.9753C9.72161 30.2032 11.8377 30.0813 14.0018 29.9271C15.6872 29.807 18.1234 29.373 19.9356 29.6557C19.8617 30.109 19.7969 30.5659 19.7473 31.0269ZM19.9728 29.4437C18.5621 29.1211 16.8087 29.4119 15.4913 29.5026C15.2102 29.522 14.9295 29.5432 14.6494 29.565C14.8637 29.5073 15.0779 29.4531 15.2906 29.416C16.8621 29.1411 18.4423 29.0793 20.0295 29.1087C20.0079 29.2194 19.9923 29.3324 19.9728 29.4437Z" fill="#1D1D1B" fill-opacity="0.75"/>
<path d="M16.8794 12.3203C15.4773 12.3421 14.0946 12.4869 12.6877 12.4239C12.5749 12.4192 12.5765 12.6065 12.6877 12.6147C14.0703 12.7154 15.5345 12.7955 16.9064 12.5399C17.0218 12.5181 16.9927 12.3186 16.8794 12.3203Z" fill="#1D1D1B" fill-opacity="0.75"/>
<path d="M14.8478 3.99065C12.0468 3.74808 9.15736 3.96769 6.34778 4.01126C6.23877 4.01303 6.23877 4.19436 6.34778 4.19613C9.15682 4.2397 12.0468 4.4593 14.8478 4.21674C14.9811 4.20496 14.9816 4.00184 14.8478 3.99065Z" fill="#1D1D1B" fill-opacity="0.75"/>
</svg>
