<svg width="49" height="43" viewBox="0 0 49 43" fill="none" xmlns="http://www.w3.org/2000/svg">
<g clip-path="url(#clip0)">
<path d="M33.0946 1.10473C33.0719 0.76645 32.7863 0.600733 32.5015 0.604157C32.4906 0.280257 32.251 -0.0196765 31.7586 0.00155162C28.5905 0.139192 25.367 0.390506 22.2269 0.791102C22.0825 0.809591 21.985 0.871906 21.9132 0.94997C21.7993 1.01502 21.7033 1.115 21.6596 1.27182C19.8547 7.67792 17.9008 13.971 15.5083 20.2313C15.4224 20.4552 15.5434 20.6107 15.7221 20.6826C15.7525 20.7716 15.822 20.8531 15.946 20.9092C17.385 21.5618 18.9433 22.0549 20.4275 22.626C20.9456 22.8252 21.3623 22.5862 21.5184 22.261C21.5746 22.2151 21.6237 22.1596 21.658 22.087C22.3112 20.7065 22.9245 19.3144 23.5332 17.9188C23.5792 17.8126 23.6299 17.7051 23.6799 17.5976C23.0189 25.6513 23.2702 33.8146 23.8734 41.8456C23.9327 42.6318 25.0197 42.8043 25.4715 42.3572C25.7829 42.4695 25.9077 42.7215 26.2206 42.8352C26.6444 42.9892 27.3209 42.9207 27.7743 42.9379C28.9705 42.9837 30.18 43.0331 31.3755 42.9748C31.9646 42.9461 32.2479 42.5496 32.2331 42.1627C32.5663 42.1045 32.8612 41.8922 32.8722 41.5046C33.2498 28.1295 33.9904 14.4627 33.0946 1.10473ZM25.0696 14.6935C27.1258 14.5832 29.1804 14.4511 31.2319 14.2956C31.2163 14.9783 31.1976 15.6611 31.1859 16.3445C29.4957 16.3431 27.7758 16.4862 26.1083 16.5438C25.8906 16.5513 25.8882 16.8457 26.1083 16.8423C27.7735 16.8156 29.4941 16.869 31.1781 16.7841C31.1703 17.308 31.157 17.8305 31.1515 18.3543C29.5409 18.3406 27.9132 18.4344 26.3033 18.4207C26.1137 18.4194 26.1169 18.6679 26.3033 18.6775C27.8781 18.7583 29.5487 18.8309 31.1461 18.7097C31.1422 19.0781 31.1336 19.4465 31.1312 19.8156C29.4567 19.8903 27.7961 19.9998 26.1075 19.9498C25.8906 19.9437 25.8921 20.2361 26.1075 20.245C27.7571 20.3128 29.4676 20.3456 31.1273 20.184C31.1242 20.7332 31.1141 21.2817 31.1125 21.8309C29.64 21.959 28.1995 22.0713 26.6943 21.9795C26.461 21.9651 26.4641 22.2795 26.6943 22.2973C28.1356 22.4068 29.6595 22.4397 31.1125 22.2343C31.1117 22.8513 31.1094 23.4682 31.111 24.0845C29.5846 24.3646 28.095 24.468 26.5406 24.2509C26.319 24.2201 26.2199 24.5139 26.4461 24.5516C27.9998 24.8063 29.5878 24.807 31.111 24.4358C31.1117 24.8967 31.1117 25.3575 31.1141 25.8184C29.1656 25.9492 27.2351 26.1409 25.2757 26.1717C25.2242 22.3459 25.1719 18.5207 25.0696 14.6935ZM25.2803 26.3751C27.2179 26.3936 29.1992 26.3607 31.1164 26.08C31.1188 26.5888 31.1203 27.0976 31.1234 27.6064C29.9553 27.707 28.7801 27.9015 27.6315 28.0453C27.466 28.0658 27.5027 28.3199 27.6713 28.3035C28.8082 28.1973 29.9826 28.1343 31.1266 27.985C31.1312 28.5609 31.1344 29.1368 31.139 29.712C29.2015 29.875 27.2897 30.0449 25.3334 30.09C25.3131 28.852 25.2975 27.6139 25.2803 26.3751ZM25.3373 30.3284C27.2366 30.4393 29.2499 30.4085 31.143 30.1079C31.1469 30.542 31.15 30.9762 31.1547 31.4096C30.0224 31.4014 28.8652 31.6233 27.8078 31.9218C27.665 31.9622 27.7243 32.1567 27.8703 32.1197C28.9744 31.8424 30.0474 31.7719 31.1578 31.7328C31.1632 32.2574 31.1679 32.7833 31.1742 33.3078C30.1207 33.4235 29.0696 33.5804 28.0232 33.7091C27.8453 33.731 27.8859 34.007 28.0661 33.9864C29.0985 33.87 30.1434 33.7776 31.1788 33.6488C31.1851 34.183 31.1906 34.7185 31.196 35.2519C29.2842 35.4478 27.3857 35.6402 25.4528 35.7155C25.4036 33.9193 25.3677 32.1238 25.3373 30.3284ZM27.7735 41.4403C27.3209 41.4574 26.6444 41.3896 26.2199 41.543C25.9787 41.6306 25.8469 41.7991 25.6572 41.9237C25.6588 41.895 25.6728 41.8744 25.6713 41.8443C25.5792 39.8838 25.5129 37.9239 25.459 35.9641C27.3568 35.9723 29.3107 35.897 31.1984 35.6237C31.2023 35.9545 31.2054 36.2859 31.2093 36.6167C29.9061 36.792 28.6334 36.9639 27.278 36.9166C27.0891 36.9098 27.0907 37.1638 27.278 37.1734C28.5328 37.2371 29.9288 37.2391 31.214 37.0029C31.2194 37.5062 31.2257 38.0116 31.2303 38.5149C29.7961 38.7593 28.3907 38.9463 26.8831 38.8936C26.7364 38.8888 26.7388 39.0832 26.8831 39.0928C28.2885 39.1819 29.8141 39.1634 31.2343 38.8874C31.2421 39.7249 31.2514 40.5651 31.2577 41.4005C30.0997 41.3506 28.9299 41.3957 27.7735 41.4403ZM23.7634 4.4485C26.422 4.18213 29.0251 4.18487 31.6884 4.18418C31.6666 4.52178 31.6361 4.858 31.6158 5.19628C29.6533 5.15657 27.6744 5.22847 25.7165 5.24011C25.5098 5.24148 25.509 5.52155 25.7165 5.52224C27.6674 5.53388 29.6377 5.6051 31.5932 5.56675C31.5721 5.95433 31.5456 6.34055 31.5253 6.72745C29.3958 6.76854 27.2608 6.93151 25.1329 6.9863C24.9635 6.9904 24.9627 7.21775 25.1329 7.21707C27.2444 7.21501 29.3981 7.23555 31.5097 7.0671C31.4496 8.22643 31.3903 9.38645 31.3482 10.5485C29.1266 10.7224 26.9822 10.9635 24.7419 10.8943C24.5453 10.8882 24.5484 11.1491 24.7419 11.1607C26.9097 11.2922 29.2109 11.3066 31.3373 10.8553C31.3162 11.4552 31.2936 12.055 31.2772 12.6556C29.0423 12.6412 26.7669 12.8124 24.5468 12.9466C24.3447 12.9589 24.34 13.2294 24.5468 13.226C26.7676 13.1877 29.047 13.1801 31.267 12.9939C31.2584 13.3143 31.2467 13.6348 31.2389 13.9553C29.1804 14.108 27.1219 14.2518 25.0626 14.3881C25.0603 14.2936 25.0587 14.1998 25.0564 14.1053C25.047 13.7766 24.7528 13.6437 24.4805 13.6821C24.3041 13.6184 24.0989 13.6321 23.9546 13.7827C23.7423 14.0032 23.5675 14.2429 23.4122 14.4928C22.3603 14.5593 21.3085 14.6312 20.2558 14.6928C20.088 14.7024 20.0849 14.9304 20.2558 14.9236C21.2531 14.8859 22.2503 14.8284 23.2476 14.7811C22.8207 15.5782 22.5843 16.4698 22.2769 17.3066C21.7852 18.6433 21.3007 19.98 20.8434 21.3256C19.4162 20.9448 17.9889 20.4949 16.5406 20.1861C19.3085 14.2949 21.5176 8.10248 22.8496 1.83402C25.811 1.80389 28.8176 1.63201 31.7586 1.36974C31.8094 1.36495 31.8468 1.34509 31.8921 1.33413C31.857 1.73473 31.8335 2.13738 31.8062 2.54003C29.594 2.49004 27.3396 2.64548 25.1329 2.73587C24.969 2.74272 24.9674 2.96117 25.1329 2.96048C27.3334 2.94815 29.5862 2.99677 31.7844 2.84612C31.7618 3.17961 31.7352 3.51173 31.7134 3.84521C29.0727 3.64937 26.3369 3.86713 23.729 4.22595C23.5862 4.24444 23.6175 4.46357 23.7634 4.4485Z" fill="#1D1D1B" fill-opacity="0.75"/>
<path d="M30.5998 40.2486C29.2179 40.2849 27.8273 40.5177 26.4609 40.6937C26.3197 40.7122 26.3517 40.9279 26.4953 40.9142C27.8694 40.7834 29.2787 40.7033 30.6287 40.4348C30.7473 40.4109 30.7216 40.2452 30.5998 40.2486Z" fill="#1D1D1B" fill-opacity="0.75"/>
<path d="M30.7902 8.84435C28.013 8.74779 25.1789 8.92926 22.4017 9.02855C22.198 9.03608 22.1957 9.30863 22.4017 9.30794C25.1812 9.29493 28.0208 9.36067 30.7902 9.15318C31.0126 9.13606 31.0189 8.85256 30.7902 8.84435Z" fill="#1D1D1B" fill-opacity="0.75"/>
</g>
<defs>
<clipPath id="clip0">
<rect width="49" height="43" fill="white"/>
</clipPath>
</defs>
</svg>
