<svg width="90" height="90" viewBox="0 0 90 90" fill="none" xmlns="http://www.w3.org/2000/svg">
<g clip-path="url(#clip0)">
<path d="M21.6511 32.6522C19.9785 31.3457 17.5547 31.6433 16.2479 33.3156C15.7997 33.8894 15.9014 34.7179 16.475 35.1663C16.716 35.3545 17.002 35.4458 17.2857 35.4458C17.6775 35.4458 18.0655 35.2717 18.3255 34.939C18.7373 34.412 19.5009 34.3185 20.0275 34.73C20.6013 35.1782 21.4297 35.0764 21.878 34.5027C22.3266 33.9289 22.2248 33.1005 21.6511 32.6522Z" fill="black" fill-opacity="0.75"/>
<path d="M35.185 30.9908C33.5123 29.684 31.0884 29.9816 29.7819 31.6542C29.3336 32.2279 29.4352 33.0564 30.009 33.5048C30.25 33.693 30.536 33.7843 30.8197 33.7843C31.2115 33.7843 31.5994 33.6102 31.8594 33.2775C32.2711 32.7505 33.0345 32.6566 33.5615 33.0685C34.1353 33.5167 34.9637 33.415 35.4121 32.8414C35.8604 32.2676 35.7586 31.4392 35.185 30.9908Z" fill="black" fill-opacity="0.75"/>
<path d="M33.6615 41.1248L33.5112 39.8996C33.4462 39.3697 33.1786 38.8968 32.7578 38.5679C32.337 38.2392 31.8135 38.0945 31.2837 38.1591L23.7126 39.0886C23.1827 39.1536 22.7098 39.4212 22.3811 39.842C22.0522 40.2628 21.9072 40.7863 21.9722 41.3161L22.1227 42.5416C22.5135 45.7235 25.4191 47.9932 28.6006 47.6027C31.7819 47.2122 34.0523 44.3061 33.6615 41.1248ZM28.2793 44.9855C26.5429 45.2003 24.9533 43.9584 24.7399 42.2201L24.6671 41.6279L30.9719 40.854L31.0447 41.4462C31.2581 43.1845 30.0176 44.7721 28.2793 44.9855Z" fill="black" fill-opacity="0.75"/>
<path d="M43.1883 6.07728C41.8944 3.30468 39.6925 1.23556 36.8208 0.0935107C36.1897 -0.157329 35.4713 0.111968 35.1611 0.715952C33.7427 3.47642 30.3162 5.44113 25.9955 5.97164L18.3718 6.90767C17.6492 6.99626 17.1352 7.65421 17.224 8.37685C17.3126 9.09966 17.9712 9.6133 18.6932 9.5247L26.3168 8.58867C30.9559 8.01896 34.7912 5.96583 36.8508 3.00849C41.1478 5.30279 42.1906 10.1122 41.7247 13.728C41.2405 17.4865 39.2643 20.3126 36.9194 20.6005L11.2678 23.7503C9.13876 24.0117 7.61931 25.9567 7.88069 28.0858L8.19587 30.6529L6.19794 30.8983L4.19526 14.5876C4.08909 13.7238 4.32587 12.8703 4.86147 12.1846C5.39726 11.4989 6.16806 11.0628 7.03185 10.9568L13.4305 10.1712C14.1531 10.0825 14.6671 9.42468 14.5783 8.70205C14.4895 7.97941 13.8314 7.46613 13.1091 7.55419L6.71052 8.33994C3.4844 8.7358 1.18202 11.6826 1.57823 14.9087L3.64823 31.7682C2.31142 32.7215 1.56083 34.3517 1.76825 36.0341C2.04915 38.3152 3.99153 40.0354 6.28636 40.0354C6.46495 40.0354 6.65128 40.0242 6.8464 40.001L9.30646 39.6979L9.54798 41.6621C10.0534 45.7785 12.1316 49.4518 15.3996 52.0052C18.1569 54.1598 21.4825 55.2994 24.9267 55.2994C25.5646 55.2994 26.2069 55.2602 26.85 55.1812C28.8363 54.9369 30.7229 54.3273 32.4568 53.3695C34.1361 52.4431 35.6135 51.2267 36.8484 49.7542C37.3163 49.1962 37.2434 48.3648 36.6854 47.8969C36.1275 47.4289 35.2961 47.5021 34.8281 48.0598C33.803 49.2822 32.5766 50.2921 31.1826 51.0611C29.7444 51.8555 28.1785 52.3612 26.5285 52.5642C23.1118 52.9838 19.7359 52.0474 17.0231 49.9277C14.3101 47.8077 12.5848 44.7583 12.1652 41.3406L11.7626 38.0675C11.7199 37.7205 11.5412 37.4047 11.2655 37.1893C10.9899 36.974 10.6405 36.877 10.2931 36.9199L6.53052 37.3834C6.44403 37.3938 6.36194 37.3989 6.28636 37.3989C5.32079 37.3989 4.50358 36.6738 4.38511 35.7119C4.27929 34.8537 4.76339 34.027 5.56214 33.7015C5.56355 33.701 5.56478 33.7001 5.56618 33.6995C5.72105 33.6359 5.8861 33.5928 6.05644 33.5719L9.82554 33.1091C10.5482 33.0205 11.0622 32.3626 10.9734 31.6399L10.4975 27.7641C10.4134 27.078 10.9031 26.4512 11.589 26.367L35.9313 23.3782L37.7517 38.1997C37.9901 40.1347 37.7971 42.0463 37.1782 43.882C36.9456 44.572 37.3161 45.3199 38.0061 45.5525C38.1458 45.5996 38.2879 45.6219 38.4274 45.6219C38.9776 45.6219 39.4909 45.2747 39.6765 44.7245C40.4229 42.5115 40.6556 40.2077 40.3686 37.8779L38.5303 22.9108C41.5062 21.8508 43.771 18.4792 44.3398 14.0651C44.6993 11.2753 44.2904 8.43855 43.1883 6.07728Z" fill="black" fill-opacity="0.75"/>
<path d="M73.7517 68.0165C72.4451 66.3439 70.0211 66.0463 68.3485 67.3531C67.7748 67.8013 67.673 68.6299 68.1214 69.2037C68.5697 69.7774 69.3981 69.8792 69.9721 69.4308C70.4989 69.0189 71.2625 69.113 71.6741 69.6398C71.9341 69.9726 72.3221 70.1466 72.7139 70.1466C72.9978 70.1466 73.2836 70.0552 73.5246 69.8669C74.0983 69.4187 74.1999 68.5902 73.7517 68.0165Z" fill="black" fill-opacity="0.75"/>
<path d="M60.218 66.3549C58.9114 64.6825 56.4876 64.3845 54.815 65.6915C54.2413 66.1397 54.1395 66.9682 54.5877 67.5419C55.0358 68.1155 55.8642 68.2176 56.4382 67.7692C56.965 67.3577 57.7286 67.4512 58.1404 67.9782C58.4004 68.311 58.7882 68.485 59.1802 68.485C59.4641 68.485 59.7499 68.3936 59.9909 68.2055C60.5646 67.7572 60.6662 66.9286 60.218 66.3549Z" fill="black" fill-opacity="0.75"/>
<path d="M66.2871 73.7894L58.7157 72.8597C58.1861 72.7952 57.6622 72.9401 57.2418 73.2686C56.295 74.0081 56.5161 75.0034 56.3381 75.8255C55.704 80.9886 61.6493 84.2681 65.6861 81.1144C68.1123 79.219 67.8686 76.6049 68.0274 76.0169C68.1617 74.9232 67.3812 73.9239 66.2871 73.7894ZM64.0628 79.0367C63.3943 79.5589 62.5625 79.7896 61.7203 79.6864C59.9782 79.4726 58.7412 77.8895 58.9549 76.147L59.0277 75.5546L65.3325 76.3288C65.2556 76.6083 65.372 78.0138 64.0628 79.0367Z" fill="black" fill-opacity="0.75"/>
<path d="M87.2161 45.2619C86.2466 44.0213 84.8522 43.2322 83.2893 43.0404L65.1738 40.8161C64.4976 40.7331 63.8793 40.3656 63.4773 39.8078C62.223 38.067 60.517 36.7169 58.544 35.903C57.8708 35.6254 57.1002 35.9461 56.8226 36.6191C56.545 37.2924 56.8657 38.063 57.5387 38.3406C59.0575 38.9669 60.3713 40.0073 61.3382 41.3492C62.1685 42.5013 63.4494 43.2608 64.8525 43.4331L82.968 45.6575C84.7511 45.8765 86.0237 47.5053 85.8045 49.2882L83.802 65.599L81.8039 65.3536L82.1191 62.7863C82.3803 60.6572 80.8609 58.7124 78.7318 58.451L53.0802 55.3013C50.6701 55.0053 48.5398 53.7726 47.0817 51.8298C45.6245 49.8883 45.0366 47.4956 45.4267 45.0921C46.0537 41.2279 49.2153 38.2017 53.115 37.7329C53.8378 37.646 54.3536 36.9897 54.2666 36.2667C54.1797 35.5439 53.5228 35.0276 52.8004 35.1151C47.7407 35.7232 43.6381 39.6524 42.8239 44.6699C42.3182 47.7876 43.0813 50.8924 44.9728 53.4127C46.5986 55.5787 48.8694 57.0623 51.4604 57.6818L49.6307 72.5785C49.3869 74.5626 49.5221 76.5417 50.0325 78.4605C50.1895 79.0506 50.7226 79.4403 51.3057 79.4403C51.4179 79.4403 51.5319 79.4259 51.6455 79.3957C52.3491 79.2085 52.7679 78.4864 52.5806 77.7827C52.1572 76.1908 52.0452 74.5481 52.2477 72.8998L54.0679 58.079L78.4103 61.0678C79.0964 61.152 79.5861 61.7789 79.5019 62.465L79.0259 66.3407C78.9833 66.6877 79.0804 67.0375 79.2955 67.3132C79.5109 67.5886 79.8267 67.7674 80.1737 67.8099L83.9428 68.2728C84.1031 68.2924 84.2582 68.3334 84.4053 68.3911C85.2257 68.7069 85.7223 69.534 85.6143 70.4127C85.496 71.3744 84.6787 72.0995 83.7131 72.0995C83.6377 72.0995 83.5558 72.0944 83.4751 72.0848L79.7063 71.6207C79.3592 71.5778 79.0094 71.675 78.7337 71.8902C78.4581 72.1053 78.2793 72.4212 78.2366 72.7684L77.8341 76.0416C77.4145 79.4591 75.6892 82.5086 72.9762 84.6285C70.2634 86.7482 66.8884 87.6852 63.4705 87.265C61.6773 87.0453 59.987 86.4682 58.4465 85.5498C56.9567 84.6617 55.6795 83.5009 54.6505 82.0997C54.2195 81.5128 53.3943 81.3867 52.8076 81.8176C52.2208 82.2486 52.0944 83.0737 52.5255 83.6605C53.7644 85.3473 55.3023 86.7449 57.0966 87.8145C58.9541 88.922 60.9909 89.6177 63.1499 89.8821C63.7932 89.9612 64.4348 90.0002 65.0729 90.0002C68.5168 90.0002 71.8429 88.8604 74.6001 86.7061C77.868 84.1525 79.9461 80.4792 80.4515 76.3631L80.693 74.3987C83.0464 74.6782 83.2295 74.7361 83.7133 74.7361C86.0081 74.7361 87.9506 73.0159 88.2315 70.7342C88.4402 69.033 87.6931 67.4123 86.3521 66.4641L88.4214 49.6094C88.6137 48.0467 88.1855 46.5028 87.2161 45.2619Z" fill="black" fill-opacity="0.75"/>
<path d="M68.5516 11.0591C67.8235 11.0591 67.2332 11.6494 67.2332 12.3774V15.6046C67.2332 16.3327 67.8235 16.923 68.5516 16.923C69.2797 16.923 69.8699 16.3327 69.8699 15.6046V12.3774C69.8699 11.6494 69.2797 11.0591 68.5516 11.0591Z" fill="black" fill-opacity="0.75"/>
<path d="M68.5516 20.9795C67.8235 20.9795 67.2332 21.5698 67.2332 22.2979V25.525C67.2332 26.2531 67.8235 26.8434 68.5516 26.8434C69.2797 26.8434 69.8699 26.2531 69.8699 25.525V22.2979C69.8699 21.5698 69.2797 20.9795 68.5516 20.9795Z" fill="black" fill-opacity="0.75"/>
<path d="M75.1254 17.6328H71.8982C71.1701 17.6328 70.5799 18.2231 70.5799 18.9512C70.5799 19.6793 71.1701 20.2695 71.8982 20.2695H75.1254C75.8535 20.2695 76.4437 19.6793 76.4437 18.9512C76.4437 18.2231 75.8535 17.6328 75.1254 17.6328Z" fill="black" fill-opacity="0.75"/>
<path d="M65.205 17.6328H61.9778C61.2498 17.6328 60.6595 18.2231 60.6595 18.9512C60.6595 19.6793 61.2498 20.2695 61.9778 20.2695H65.205C65.9331 20.2695 66.5234 19.6793 66.5234 18.9512C66.5234 18.2231 65.9331 17.6328 65.205 17.6328Z" fill="black" fill-opacity="0.75"/>
<path d="M21.4482 63.1558C20.7201 63.1558 20.1299 63.746 20.1299 64.4741V67.7013C20.1299 68.4294 20.7201 69.0196 21.4482 69.0196C22.1763 69.0196 22.7666 68.4294 22.7666 67.7013V64.4741C22.7666 63.746 22.1763 63.1558 21.4482 63.1558Z" fill="black" fill-opacity="0.75"/>
<path d="M21.4482 73.0762C20.7201 73.0762 20.1299 73.6664 20.1299 74.3945V77.6217C20.1299 78.3498 20.7201 78.9401 21.4482 78.9401C22.1763 78.9401 22.7666 78.3498 22.7666 77.6217V74.3945C22.7666 73.6663 22.1763 73.0762 21.4482 73.0762Z" fill="black" fill-opacity="0.75"/>
<path d="M28.0218 69.7295H24.7947C24.0666 69.7295 23.4763 70.3198 23.4763 71.0479C23.4763 71.7759 24.0666 72.3662 24.7947 72.3662H28.0218C28.7499 72.3662 29.3402 71.7759 29.3402 71.0479C29.3402 70.3198 28.7501 69.7295 28.0218 69.7295Z" fill="black" fill-opacity="0.75"/>
<path d="M18.1015 69.7295H14.8745C14.1464 69.7295 13.5562 70.3198 13.5562 71.0479C13.5562 71.7759 14.1464 72.3662 14.8745 72.3662H18.1017C18.8298 72.3662 19.42 71.7759 19.42 71.0479C19.42 70.3198 18.8296 69.7295 18.1015 69.7295Z" fill="black" fill-opacity="0.75"/>
</g>
<defs>
<clipPath id="clip0">
<rect width="90" height="90" fill="white"/>
</clipPath>
</defs>
</svg>
