<svg width="107" height="88" viewBox="0 0 107 88" fill="none" xmlns="http://www.w3.org/2000/svg">
<path d="M15.4159 73.4626C14.7887 74.0065 14.7887 74.8864 15.4159 75.4304C16.474 76.3585 17.5912 77.2356 18.7608 78.0571C19.388 78.601 20.4065 78.6019 21.0348 78.058C21.663 77.5141 21.6641 76.6333 21.0359 76.0893C20.9941 76.0532 20.9501 76.0188 20.904 75.9872L20.7968 75.913C19.7247 75.1426 18.6526 74.3165 17.6662 73.4626C17.0423 72.9317 16.0409 72.9317 15.4159 73.4626Z" fill="#2B1B19" fill-opacity="0.75"/>
<path d="M2.56149 41.3111H2.76519C3.57893 41.3111 4.26509 40.7858 4.36265 40.0859C4.53419 38.8793 4.77005 37.6634 5.07025 36.4846C5.40153 35.7708 5.0027 34.9605 4.17825 34.6737C3.35379 34.3869 2.41783 34.7322 2.08654 35.4459C2.019 35.5907 1.9804 35.7448 1.97183 35.9007C1.65019 37.1723 1.4036 38.4625 1.22134 39.7527C1.10555 40.4999 1.70058 41.1923 2.56149 41.3111Z" fill="#2B1B19" fill-opacity="0.75"/>
<path d="M8.4046 65.0813C7.64126 65.474 7.39039 66.3288 7.84496 66.9897C7.84603 66.9906 7.84711 66.9924 7.84711 66.9934C8.61902 68.1072 9.45525 69.2024 10.3451 70.2512C10.894 70.8555 11.905 70.9613 12.6029 70.4861C13.2676 70.034 13.4145 69.2135 12.9396 68.6084C12.1141 67.6245 11.3314 66.6035 10.6131 65.564C10.1596 64.9031 9.17222 64.6859 8.40889 65.0795C8.40781 65.0795 8.40567 65.0804 8.4046 65.0813Z" fill="#2B1B19" fill-opacity="0.75"/>
<path d="M3.89038 55.4381C3.04662 55.6617 2.56739 56.4321 2.81826 57.1645C3.24711 58.4083 3.74028 59.652 4.29779 60.8772C4.63229 61.6021 5.58325 61.9558 6.42058 61.6662C7.2579 61.3766 7.66638 60.5533 7.33188 59.8284C6.81726 58.7053 6.34553 57.545 5.94885 56.3755C5.69047 55.645 4.80061 55.2301 3.95471 55.4473L3.89038 55.4381Z" fill="#2B1B19" fill-opacity="0.75"/>
<path d="M5.1878 31.1568C6.01224 31.4417 6.94818 31.0937 7.27731 30.3799C7.27731 30.379 7.27839 30.378 7.27839 30.3771C7.78334 29.2401 8.35906 28.1272 9.00446 27.0449C9.40435 26.3581 9.08487 25.5209 8.29152 25.1747C7.49816 24.8284 6.53113 25.105 6.13124 25.7919C5.45582 26.9521 4.83401 28.1495 4.28724 29.3654C3.97204 30.0754 4.37301 30.8728 5.1878 31.1568Z" fill="#2B1B19" fill-opacity="0.75"/>
<path d="M2.77563 51.6976H3.04365C3.92491 51.601 4.54887 50.9049 4.43844 50.142C4.43844 50.141 4.43844 50.1392 4.43737 50.1383C4.26584 48.9316 4.14791 47.7065 4.0943 46.4998C4.06214 45.7313 3.31489 45.1308 2.4272 45.1586C1.53951 45.1865 0.845865 45.8334 0.878028 46.6019C0.902686 47.9069 1.0249 49.2092 1.24254 50.5002C1.35082 51.1685 1.99729 51.6725 2.77563 51.6976Z" fill="#2B1B19" fill-opacity="0.75"/>
<path d="M41.1359 5.75294H41.4468C42.8298 5.5209 44.2343 5.34455 45.628 5.22388C46.5211 5.1979 47.2222 4.55004 47.1922 3.77687C47.1622 3.00371 46.4139 2.39669 45.5208 2.42268C45.4522 2.42454 45.3846 2.4301 45.3171 2.43939C43.8269 2.56933 42.326 2.75496 40.8465 3.00557C39.9523 3.02506 39.2458 3.66828 39.2683 4.44144C39.2909 5.21553 40.0338 5.82719 40.9269 5.8077C40.9998 5.80584 41.0738 5.80028 41.1456 5.79007L41.1359 5.75294Z" fill="#2B1B19" fill-opacity="0.75"/>
<path d="M11.46 22.1531C11.9778 22.1549 12.4646 21.9405 12.768 21.5776C13.5935 20.5937 14.4726 19.6284 15.3946 18.7188C16.0122 18.1591 15.9875 17.2718 15.341 16.7372C14.6946 16.2025 13.6696 16.2239 13.0521 16.7836C13.0242 16.8086 12.9974 16.8356 12.9717 16.8625C11.9853 17.7906 11.0419 18.8673 10.1627 19.9255C9.6417 20.5483 9.80252 21.4189 10.5219 21.87C10.7953 22.0408 11.1234 22.1336 11.46 22.1345V22.1531Z" fill="#2B1B19" fill-opacity="0.75"/>
<path d="M57.1954 5.45526H57.442C58.3297 5.51188 59.1026 4.93363 59.168 4.1651C59.2334 3.39657 58.5655 2.72736 57.6778 2.67074C56.1983 2.47582 54.6867 2.33659 53.1857 2.26234C52.298 2.21593 51.5347 2.80254 51.4811 3.57107C51.4275 4.33959 52.105 5.00046 52.9927 5.04686C54.4079 5.13968 55.8124 5.26963 57.1954 5.45526Z" fill="#2B1B19" fill-opacity="0.75"/>
<path d="M20.6798 14.2635C21.7519 13.4839 22.8883 12.7414 24.0462 12.0545C24.7613 11.5988 24.9146 10.7273 24.3882 10.1082C23.8854 9.51699 22.9377 9.3657 22.2236 9.76202C20.9907 10.4953 19.7793 11.2935 18.6214 12.1195C17.9374 12.6114 17.8441 13.4904 18.4123 14.0825C18.9806 14.6747 19.9958 14.7555 20.6798 14.2635Z" fill="#2B1B19" fill-opacity="0.75"/>
<path d="M29.7496 8.98296C29.9877 8.9811 30.2214 8.93377 30.4358 8.84373C31.7009 8.32396 33.0088 7.8506 34.3275 7.43293C35.1713 7.19253 35.629 6.40545 35.3514 5.67499C35.093 4.99743 34.2857 4.59832 33.4806 4.75054L33.2554 4.81551C31.837 5.25175 30.4487 5.75667 29.0957 6.32841C28.2905 6.65234 27.941 7.48119 28.3162 8.17824C28.5811 8.6711 29.1536 8.98574 29.7818 8.98296H29.7496Z" fill="#2B1B19" fill-opacity="0.75"/>
<path d="M48.9615 85.037C48.0738 85.0166 47.3341 85.6236 47.3105 86.3922C47.2869 87.1607 47.9881 87.8012 48.8758 87.8216H50.2159C51.288 87.8216 52.3601 87.8216 53.3679 87.7381C54.2555 87.6898 54.9299 87.0261 54.8742 86.2576C54.8184 85.489 54.0519 84.9052 53.1642 84.9535C51.7661 85.0454 50.3628 85.0732 48.9615 85.037Z" fill="#2B1B19" fill-opacity="0.75"/>
<path d="M94.7738 60.2545C95.61 60.5144 96.5309 60.1376 96.83 59.4145C96.8311 59.4127 96.8311 59.4117 96.8322 59.4099C97.3361 58.1847 97.7756 56.9317 98.1509 55.6972C98.4168 54.964 97.9461 54.1825 97.0981 53.9513C96.25 53.7202 95.3484 54.1286 95.0814 54.8628C95.06 54.9231 95.0428 54.9853 95.03 55.0475C94.6869 56.2263 94.2688 57.3958 93.7971 58.5374C93.5451 59.2428 93.974 59.9974 94.7738 60.2545Z" fill="#2B1B19" fill-opacity="0.75"/>
<path d="M97.3896 39.6587H97.6576C98.5335 39.5353 99.1285 38.8206 98.987 38.0622C98.7404 36.7813 98.4295 35.4911 98.0542 34.2381C97.7969 33.502 96.8996 33.0853 96.0495 33.3081C95.2433 33.5188 94.7619 34.2325 94.9452 34.9435C95.299 36.113 95.5885 37.3197 95.8243 38.517C95.9626 39.1733 96.6198 39.6522 97.3896 39.6587Z" fill="#2B1B19" fill-opacity="0.75"/>
<path d="M98.6437 2.3646L81.565 6.8384L75.8185 1.55708C74.354 0.0905684 71.9697 -0.39858 69.9005 0.341176H69.804C68.2441 0.897152 67.0047 1.97012 66.3625 3.32062C66.2007 3.67332 66.0859 4.04088 66.0195 4.41586L65.3655 4.22095C64.5185 3.98519 63.6115 4.38802 63.3392 5.12128C63.0669 5.85453 63.5322 6.63977 64.3792 6.87553C65.2047 7.10757 66.0302 7.36746 66.8557 7.63663C67.1044 7.97356 67.395 8.2845 67.7241 8.5648L73.803 13.5398L72.0662 18.5056C55.0786 8.01532 31.4859 11.4329 19.3678 26.1398C7.24982 40.8467 11.1984 61.2721 28.1859 71.7633C45.1734 82.2544 68.7662 78.836 80.8842 64.1291C90.5471 52.4016 90.2094 36.5818 80.0533 25.1698L82.7979 20.8817L89.1662 26.0795L87.6331 30.4697C87.4434 30.9487 87.5795 31.4796 87.9869 31.8434C87.9869 31.8434 91.1282 34.5351 91.2032 34.628C91.9419 35.0076 92.895 34.796 93.3335 34.1574C93.3378 34.1499 93.3432 34.1434 93.3475 34.136L97.5394 27.481L105.108 23.9075C105.893 23.5947 106.237 22.79 105.875 22.1097C105.799 21.9676 105.696 21.8377 105.569 21.7263L102.75 19.1367C102.342 18.7849 101.745 18.6568 101.195 18.8026L96.0706 20.1484L90.0668 14.6351L103.543 8.13784C104.328 7.82505 104.672 7.02032 104.31 6.33997C104.234 6.19796 104.131 6.06801 104.004 5.95663L100.22 2.68018C99.8026 2.33025 99.1958 2.20866 98.6437 2.3646ZM25.8262 23.9168C32.2953 18.319 41.0705 15.1799 50.2166 15.192C50.9317 15.192 51.6457 15.2105 52.3608 15.2477C58.4397 20.102 56.6493 24.5294 52.5753 28.5206C50.1716 30.7278 47.5921 32.7874 44.8561 34.6836C40.9 37.5981 37.212 40.3177 35.8182 43.0372C34.1672 46.2673 35.3787 49.191 42.0472 51.7435C45.3814 53.0244 47.1933 54.0175 47.9009 54.7693C47.9974 54.8714 48.0939 54.7693 48.0724 54.7693C47.9984 54.774 47.9255 54.7898 47.858 54.8158C46.2434 55.3476 44.5248 55.6038 42.7977 55.5676C34.714 55.8646 28.9568 51.3908 24.4861 47.9287C21.2698 45.4505 18.6002 43.3899 15.8235 43.3714C16.277 36.0416 19.8385 29.1137 25.8262 23.9168ZM84.7921 45.0606C84.7813 58.0068 75.156 69.479 60.9377 73.4906C60.5389 71.315 61.0042 69.0874 62.2564 67.1698C63.9557 64.8075 66.1342 62.7322 68.689 61.0438C78.5846 53.8969 79.1421 49.9057 79.5709 46.8334C79.8389 44.8936 80.0426 43.4456 84.4704 41.3387C84.6473 42.5703 84.7374 43.8104 84.7384 45.0514L84.7921 45.0606ZM82.7872 35.0178C83.2664 36.1864 83.6599 37.38 83.9665 38.5913C77.223 41.5614 76.9228 43.6777 76.5154 46.5643C76.1509 49.1632 75.6791 52.5603 66.7378 59.0204C63.8742 60.9176 61.4384 63.2547 59.5547 65.9167C57.9122 68.4302 57.3429 71.3651 57.9465 74.2053C39.3487 77.8855 20.8259 67.8176 16.5739 51.7156C16.0872 49.8741 15.8042 47.9974 15.727 46.1095C17.4316 46.1095 19.6402 47.8637 22.3526 49.9521C27.2628 53.7484 33.5454 58.5934 42.9049 58.3057C45.1102 58.3382 47.2994 57.978 49.3375 57.2476C50.1963 56.919 50.847 56.2813 51.1172 55.5026C51.3456 54.6338 51.0561 53.7242 50.3453 53.0801C49.3375 52.0127 47.129 50.7503 43.3337 49.2838C38.7987 47.5481 37.8124 45.8589 38.7022 44.1325C39.7743 41.9605 43.2265 39.4916 46.8931 36.7071C49.7503 34.7078 52.4412 32.5368 54.9446 30.2098C59.426 25.7917 61.731 20.9281 57.1746 15.7025C62.2382 16.5991 67.0026 18.474 71.112 21.188L68.6461 28.2328C68.4639 28.7155 68.6086 29.2455 69.0214 29.6065C69.0214 29.6065 73.0203 33.0408 73.149 33.1057C73.8877 33.4854 74.8408 33.2737 75.2793 32.6352C75.2835 32.6277 75.2889 32.6212 75.2932 32.6138L78.413 27.7316C80.2517 29.9741 81.7237 32.4263 82.7872 35.0178ZM86.7755 13.1129C86.0164 13.4609 85.728 14.2759 86.13 14.9321C86.1375 14.9441 86.1451 14.9571 86.1536 14.9692C86.218 15.0713 94.4196 22.6267 94.4196 22.6267C94.8259 22.9988 95.4413 23.139 96.0063 22.9886L101.185 21.6335L101.989 22.3296L97.1642 24.6408L95.7811 25.2348C95.4713 25.3675 95.2226 25.5866 95.0736 25.8567L94.3874 27.0633L91.7179 31.2401L90.9352 30.4976L92.4898 26.0516C92.671 25.5309 92.4715 24.9666 91.9859 24.6222L83.527 17.7352C82.9202 17.2098 81.936 17.2098 81.3291 17.7352C81.2219 17.8373 73.61 29.7086 73.61 29.7086L71.9482 28.27L77.1372 13.4656C77.3227 12.9421 77.1244 12.3731 76.6333 12.0269L69.8576 6.59707C69.1125 6.05038 68.8648 5.14819 69.2465 4.36945C69.5885 3.69467 70.2125 3.15819 70.994 2.86581H71.0476C71.9354 2.5688 72.9431 2.79249 73.5564 3.42272L79.989 9.30734C80.3932 9.68325 81.0086 9.82712 81.5757 9.67861L98.7294 5.19553L100.391 6.6342L86.7755 13.1129Z" fill="#2B1B19" fill-opacity="0.75"/>
<path d="M92.9504 63.7541C92.1817 63.406 91.234 63.6483 90.8062 64.3017C90.1308 65.3691 89.3911 66.418 88.5977 67.4204C88.0852 68.0506 88.2611 68.9213 88.989 69.365C89.717 69.8086 90.7226 69.6564 91.2351 69.0262C92.0713 67.9495 92.8647 66.8264 93.5937 65.694C94.0419 65.0322 93.7878 64.182 93.0255 63.7912L92.9504 63.7541Z" fill="#2B1B19" fill-opacity="0.75"/>
<path d="M99.5332 48.9318C99.6726 47.6416 99.7369 46.3329 99.7369 45.0335V44.8386C99.7316 44.0728 99.0133 43.4556 98.1288 43.4556C97.2411 43.4352 96.5024 44.0413 96.4788 44.8098C96.4788 44.8191 96.4788 44.8283 96.4777 44.8386C96.4777 44.8386 96.4777 44.8386 96.4777 44.8942V45.052C96.4777 46.2679 96.4134 47.4931 96.2847 48.709C96.2043 49.4748 96.8562 50.1523 97.7407 50.2219C97.7417 50.2219 97.7417 50.2219 97.7428 50.2219H97.8929C98.7495 50.2386 99.471 49.6715 99.5332 48.9318Z" fill="#2B1B19" fill-opacity="0.75"/>
<path d="M37.5228 83.5242C36.6855 83.268 35.7656 83.6486 35.4697 84.3735C35.1738 85.0984 35.6134 85.8948 36.4507 86.151H36.6437C38.0803 86.5037 39.5598 86.81 41.0393 87.0791H41.3395C42.2219 87.2035 43.0538 86.6847 43.1975 85.9208C43.3412 85.1569 42.7419 84.4366 41.8595 84.3122C41.7866 84.302 41.7137 84.2965 41.6408 84.2946C40.2503 84.1136 38.8747 83.8565 37.5228 83.5242Z" fill="#2B1B19" fill-opacity="0.75"/>
<path d="M64.572 83.0971C63.2426 83.4832 61.8853 83.7933 60.5087 84.0253C59.6414 84.1942 59.0968 84.9405 59.2919 85.6914C59.487 86.4423 60.349 86.9138 61.2163 86.7449C62.6744 86.4572 64.1432 86.1045 65.5691 85.7053C66.4021 85.4399 66.8288 84.6388 66.5222 83.9176C66.2316 83.2336 65.3815 82.8604 64.572 83.06V83.0971Z" fill="#2B1B19" fill-opacity="0.75"/>
<path d="M26.8659 79.5701C26.1293 79.1403 25.1301 79.3083 24.6338 79.946C24.1374 80.5836 24.3314 81.4487 25.068 81.8784C25.1216 81.91 25.1784 81.9387 25.2363 81.9638C26.5335 82.6228 27.8737 83.2354 29.2353 83.8201C30.0404 84.1477 31.001 83.8489 31.3795 83.1518C31.7579 82.4548 31.4127 81.6232 30.6076 81.2955C29.3317 80.7581 28.0774 80.1641 26.8659 79.5701Z" fill="#2B1B19" fill-opacity="0.75"/>
<path d="M83.9551 72.4135C83.0009 73.3111 81.9921 74.1632 80.9318 74.966C80.2681 75.4784 80.2113 76.3592 80.8031 76.9338C81.3949 77.5083 82.4123 77.5575 83.076 77.0451C84.1481 76.1819 85.2845 75.263 86.2923 74.3163C86.8916 73.7483 86.8455 72.8674 86.1894 72.3495C85.5451 71.8399 84.5491 71.8687 83.9444 72.4135H83.9551Z" fill="#2B1B19" fill-opacity="0.75"/>
<path d="M75.0349 78.8183C73.8556 79.4681 72.6226 80.0807 71.379 80.6747C70.5888 81.0256 70.2768 81.8656 70.6821 82.5497C71.0874 83.2337 72.0576 83.5039 72.8478 83.153C74.1772 82.559 75.4959 81.8999 76.761 81.2038C77.4986 80.775 77.6948 79.9108 77.2006 79.2722C76.7406 78.6791 75.8379 78.4833 75.1099 78.8183H75.0349Z" fill="#2B1B19" fill-opacity="0.75"/>
</svg>
