<svg width="80" height="76" viewBox="0 0 80 76" fill="none" xmlns="http://www.w3.org/2000/svg">
<path d="M75.6474 0.634766H4.34503C2.15727 0.634766 0.383789 2.49722 0.383789 4.79474V57.4877C0.383789 59.7852 2.15727 61.6477 4.34503 61.6477H34.7146V67.1943H24.1513C21.9635 67.1943 20.19 69.0567 20.19 71.3543V74.1276C20.19 74.8933 20.7812 75.5142 21.5104 75.5142H58.482C59.2112 75.5142 59.8025 74.8933 59.8025 74.1276V71.3543C59.8025 69.0567 58.029 67.1943 55.8412 67.1943H46.5983V61.6477H75.6474C77.8352 61.6477 79.6087 59.7852 79.6087 57.4877V4.79474C79.6087 2.49722 77.8352 0.634766 75.6474 0.634766ZM55.8412 69.9676C56.5704 69.9676 57.1616 70.5885 57.1616 71.3543V72.7409H22.8308V71.3543C22.8308 70.5885 23.4221 69.9676 24.1513 69.9676H55.8412ZM37.3554 67.1943V61.6477H43.9575V67.1943H37.3554ZM76.9678 57.4877C76.9678 58.2535 76.3766 58.8743 75.6474 58.8743H4.34503C3.61583 58.8743 3.02462 58.2535 3.02462 57.4877V53.3277H76.9678V57.4877ZM76.9678 50.5544H3.02462V11.8431H76.9678V50.5544ZM76.9678 9.0698H3.02462V4.79474C3.02462 4.02895 3.61583 3.40808 4.34503 3.40808H75.6474C76.3766 3.40808 76.9678 4.02895 76.9678 4.79474V9.0698Z" fill="#3B3838" fill-opacity="0.75"/>
<path d="M6.9857 17.2743H9.9157L13.6129 35.5781C13.7385 36.2243 14.2802 36.6883 14.9082 36.6875H30.7532C31.3807 36.6876 31.9217 36.2238 32.0472 35.5781L34.688 21.7116C34.8339 20.9612 34.3729 20.2287 33.6584 20.0757C33.5714 20.057 33.4828 20.0476 33.394 20.0476H13.2973L12.2277 15.5521C12.081 14.9345 11.553 14.5011 10.9469 14.501H6.9857C6.2565 14.501 5.66528 15.1219 5.66528 15.8876C5.66528 16.6534 6.2565 17.2743 6.9857 17.2743ZM31.7831 22.8209L29.6717 33.9142H15.9896L13.8769 22.8209H31.7831Z" fill="#3B3838" fill-opacity="0.75"/>
<path d="M17.5493 38.0742C15.3615 38.0742 13.588 39.9367 13.588 42.2342C13.588 44.5318 15.3615 46.3943 17.5493 46.3943C19.737 46.3943 21.5105 44.5318 21.5105 42.2342C21.5105 39.9367 19.737 38.0742 17.5493 38.0742ZM17.5493 43.6209C16.8201 43.6209 16.2288 43 16.2288 42.2342C16.2288 41.4685 16.8201 40.8476 17.5493 40.8476C18.2785 40.8476 18.8697 41.4685 18.8697 42.2342C18.8697 43 18.2785 43.6209 17.5493 43.6209Z" fill="#3B3838" fill-opacity="0.75"/>
<path d="M29.4328 38.0742C27.2451 38.0742 25.4716 39.9367 25.4716 42.2342C25.4716 44.5318 27.2451 46.3943 29.4328 46.3943C31.6206 46.3943 33.3941 44.5318 33.3941 42.2342C33.3941 39.9367 31.6206 38.0742 29.4328 38.0742ZM29.4328 43.6209C28.7036 43.6209 28.1124 43 28.1124 42.2342C28.1124 41.4685 28.7036 40.8476 29.4328 40.8476C30.162 40.8476 30.7532 41.4685 30.7532 42.2342C30.7532 43 30.162 43.6209 29.4328 43.6209Z" fill="#3B3838" fill-opacity="0.75"/>
<path d="M41.3163 21.4345H65.0837C65.8129 21.4345 66.4042 20.8136 66.4042 20.0478C66.4042 19.282 65.8129 18.6611 65.0837 18.6611H41.3163C40.5871 18.6611 39.9958 19.282 39.9958 20.0478C39.9958 20.8136 40.5871 21.4345 41.3163 21.4345Z" fill="#3B3838" fill-opacity="0.75"/>
<path d="M70.3657 21.4345H73.0066C73.7358 21.4345 74.327 20.8136 74.327 20.0478C74.327 19.282 73.7358 18.6611 73.0066 18.6611H70.3657C69.6365 18.6611 69.0453 19.282 69.0453 20.0478C69.0453 20.8136 69.6365 21.4345 70.3657 21.4345Z" fill="#3B3838" fill-opacity="0.75"/>
<path d="M41.3163 26.9809H65.0837C65.8129 26.9809 66.4042 26.36 66.4042 25.5942C66.4042 24.8284 65.8129 24.2075 65.0837 24.2075H41.3163C40.5871 24.2075 39.9958 24.8284 39.9958 25.5942C39.9958 26.36 40.5871 26.9809 41.3163 26.9809Z" fill="#3B3838" fill-opacity="0.75"/>
<path d="M70.3657 26.9809H73.0066C73.7358 26.9809 74.327 26.36 74.327 25.5942C74.327 24.8284 73.7358 24.2075 73.0066 24.2075H70.3657C69.6365 24.2075 69.0453 24.8284 69.0453 25.5942C69.0453 26.36 69.6365 26.9809 70.3657 26.9809Z" fill="#3B3838" fill-opacity="0.75"/>
<path d="M41.3163 32.5278H65.0837C65.8129 32.5278 66.4042 31.9069 66.4042 31.1411C66.4042 30.3753 65.8129 29.7544 65.0837 29.7544H41.3163C40.5871 29.7544 39.9958 30.3753 39.9958 31.1411C39.9958 31.9069 40.5871 32.5278 41.3163 32.5278Z" fill="#3B3838" fill-opacity="0.75"/>
<path d="M70.3657 32.5278H73.0066C73.7358 32.5278 74.327 31.9069 74.327 31.1411C74.327 30.3753 73.7358 29.7544 73.0066 29.7544H70.3657C69.6365 29.7544 69.0453 30.3753 69.0453 31.1411C69.0453 31.9069 69.6365 32.5278 70.3657 32.5278Z" fill="#3B3838" fill-opacity="0.75"/>
<path d="M41.3163 38.0742H65.0837C65.8129 38.0742 66.4042 37.4533 66.4042 36.6875C66.4042 35.9217 65.8129 35.3008 65.0837 35.3008H41.3163C40.5871 35.3008 39.9958 35.9217 39.9958 36.6875C39.9958 37.4533 40.5871 38.0742 41.3163 38.0742Z" fill="#3B3838" fill-opacity="0.75"/>
<path d="M70.3657 38.0742H73.0066C73.7358 38.0742 74.327 37.4533 74.327 36.6875C74.327 35.9217 73.7358 35.3008 73.0066 35.3008H70.3657C69.6365 35.3008 69.0453 35.9217 69.0453 36.6875C69.0453 37.4533 69.6365 38.0742 70.3657 38.0742Z" fill="#3B3838" fill-opacity="0.75"/>
</svg>
