<svg width="31" height="36" viewBox="0 0 31 36" fill="none" xmlns="http://www.w3.org/2000/svg">
<g clip-path="url(#clip0)">
<path d="M11.0372 3.83545C10.974 3.83545 10.974 3.94935 11.0372 3.94935C11.1004 3.94877 11.1004 3.83545 11.0372 3.83545Z" fill="#1D1D1B" fill-opacity="0.75"/>
<path d="M24.2599 22.5772C22.8344 18.6004 19.7774 15.7737 16.1733 15.0822C17.655 13.8466 19.0027 12.2178 20.346 10.8637C21.2875 9.91494 22.5272 8.88404 22.5745 7.3958C22.7866 7.29404 22.947 7.08069 22.9151 6.77252C22.7936 5.59013 22.6721 4.41064 22.6154 3.22074C22.579 2.46101 22.7428 1.52146 22.2748 0.947323C22.3863 0.539704 22.1827 -0.0326974 21.7391 0.00199355C17.5918 0.322307 13.4449 0.61082 9.29707 0.910319C9.26222 0.912632 9.23534 0.927665 9.20497 0.936916C8.91022 0.835156 8.57764 0.95773 8.51839 1.40467C8.30779 2.98195 8.16838 4.60318 8.26646 6.19954C8.27343 6.31402 8.31824 6.41058 8.38048 6.48747C8.12656 6.90261 8.258 7.59816 8.80616 7.53688C11.1223 7.27669 13.3862 7.36111 15.6475 7.87511C13.8696 9.49287 11.9139 10.5498 9.70882 11.3367C9.55697 11.391 9.48378 11.5541 9.47731 11.7171C9.38072 11.7969 9.30703 11.9218 9.28064 12.1063C9.02175 13.916 9.09693 15.7968 9.75114 17.4886C9.77056 17.5383 9.79744 17.5782 9.82931 17.61C9.48677 17.9182 9.62866 18.6866 10.14 18.6762C12.5662 18.627 14.8544 19.4394 16.0498 22.1389C16.7961 23.8243 16.8629 28.0774 14.0936 27.4322C12.136 26.976 12.1639 23.9064 12.4482 22.2291C12.4984 21.9342 12.3212 21.7452 12.13 21.7203C12.0742 21.6237 11.9966 21.5468 11.896 21.522C11.0421 21.308 10.1455 21.5821 9.28712 21.7099C8.47358 21.8307 7.66253 21.9602 6.85199 22.1048C6.62246 22.0655 6.38199 22.1805 6.30233 22.5321C3.9832 32.7133 14.9669 39.5121 21.9532 34.0795C25.1964 31.5575 25.6783 26.5348 24.2599 22.5772ZM9.09892 6.16196C9.29558 4.73558 9.44743 3.30284 9.65854 1.8782C13.6137 2.18753 17.6829 1.99499 21.6091 1.37749C21.4195 1.92272 21.4941 2.61769 21.4936 3.22074C21.4936 3.304 21.4976 3.38668 21.4981 3.46936C18.3431 3.22479 15.0585 3.39419 11.9095 3.66478C11.8089 3.67346 11.8059 3.84865 11.9095 3.84922C15.0904 3.85501 18.3261 3.91976 21.5031 3.73648C21.5126 4.2765 21.5315 4.81537 21.5688 5.35308C18.8026 4.97379 15.9791 4.84254 13.1995 4.94835C13.1153 4.95124 13.0874 5.11082 13.1785 5.12759C13.3742 5.16286 13.5699 5.19813 13.766 5.23397C13.8069 5.24149 13.8243 5.17616 13.7835 5.16054C14.842 5.55371 16.4949 5.24265 17.5987 5.31318C18.932 5.39876 20.2614 5.54041 21.5927 5.66009C21.6271 6.09431 21.6674 6.52737 21.7207 6.95985C21.7326 7.05698 21.7615 7.13909 21.8023 7.20673C21.5713 7.88494 20.9629 8.32205 20.4829 8.77072C20.2733 8.96672 20.0682 9.17082 19.8621 9.37261C18.4611 9.44488 17.1666 9.62065 15.777 9.44141C16.3251 8.99968 16.8489 8.51401 17.3438 7.98786C17.6664 7.645 17.5016 6.97315 17.0859 6.85346C14.4561 6.0972 11.79 5.82719 9.09892 6.16196ZM23.1635 29.9201C20.7289 29.524 18.2156 29.5674 15.7675 29.7027C15.6869 29.7073 15.6859 29.8513 15.7675 29.849C18.2196 29.7871 20.6313 30.0114 23.0729 30.1681C22.9176 30.5561 22.7319 30.929 22.5103 31.2794C21.8586 31.4494 20.4959 31.0302 19.8905 30.9683C19.0197 30.8793 18.1479 30.7989 17.2756 30.7272C15.2403 30.5601 13.2029 30.4387 11.1626 30.3826C11.069 30.3803 11.07 30.5451 11.1626 30.5509C13.4927 30.6972 15.8223 30.8504 18.1474 31.0811C19.0635 31.1719 21.1919 31.8593 22.2798 31.6182C22.0498 31.9351 21.7954 32.2351 21.5021 32.5063C18.2699 32.1305 15.0252 31.8183 11.7845 31.5691C11.7083 31.5633 11.7113 31.6951 11.7845 31.7044C14.9171 32.1137 18.0618 32.4629 21.2054 32.7538C21.1297 32.815 21.061 32.8821 20.9813 32.9405C20.5875 33.229 20.1837 33.4748 19.773 33.6817C17.2637 33.5829 14.7912 33.447 12.2978 33.0278C12.2132 33.0134 12.1753 33.1625 12.2619 33.1793C14.5452 33.6164 16.8718 33.935 19.1914 33.9466C13.2234 36.3853 6.15645 30.8429 7.30954 23.0039C8.09669 22.964 8.88284 22.9119 9.66949 22.8541C10.3262 22.8061 10.9734 22.8171 11.5953 22.6223C11.1084 24.7812 11.2652 27.3379 13.2258 28.4475C14.2584 29.032 15.3438 28.8117 16.1828 28.1185C18.6453 28.1173 21.0993 28.2358 23.5598 28.3064C23.4782 28.862 23.3492 29.4043 23.1635 29.9201ZM23.5997 28.008C21.2029 27.8207 18.7812 27.8502 16.3804 27.9421C16.8479 27.4917 17.2233 26.8892 17.4419 26.1943C18.9057 21.5359 14.3735 16.6178 10.4527 17.3972C10.4616 17.3562 10.4671 17.3128 10.4616 17.2648C10.2749 15.6366 10.1699 14.0998 10.4143 12.4694C10.4407 12.2942 10.4128 12.141 10.3536 12.0132C12.2107 11.6796 13.9498 10.84 15.5041 9.64667C16.7932 9.89586 18.23 10.0416 19.5225 9.7016C19.1526 10.0687 18.7842 10.4382 18.4148 10.8053C16.8649 10.9181 15.3413 11.0678 13.7775 11.0222C13.6894 11.0193 13.6919 11.1708 13.7775 11.1794C15.1641 11.317 16.6294 11.3679 18.0339 11.1731C17.6246 11.5674 17.2029 11.9617 16.7802 12.3659C15.0322 12.3971 13.2876 12.5087 11.5365 12.4815C11.4584 12.4803 11.4589 12.6185 11.5365 12.6226C13.1691 12.7064 14.834 12.7758 16.475 12.6677C16.0304 13.1019 15.5938 13.5454 15.1965 14.0177C13.7272 14.0091 12.2565 14.0657 10.7862 14.0143C10.7061 14.0114 10.7071 14.1519 10.7862 14.1577C12.1559 14.2577 13.5584 14.36 14.9435 14.3219C14.7967 14.5086 14.6558 14.6994 14.5233 14.8948C14.3262 15.1857 14.3794 15.5644 14.5622 15.7748C13.303 15.7777 12.0469 15.7887 10.7862 15.7349C10.6971 15.7309 10.6986 15.887 10.7862 15.8951C12.259 16.0235 13.7576 16.0911 15.2348 15.9928C16.2106 16.2189 17.1462 16.5831 18.0184 17.0792C16.6433 17.0491 15.2756 17.1191 13.8985 17.0179C13.8213 17.0121 13.8233 17.148 13.8985 17.1561C15.2896 17.3088 16.7389 17.4481 18.1329 17.2781C18.1788 17.2723 18.2022 17.2342 18.2091 17.1937C18.6542 17.4597 19.0844 17.7557 19.4922 18.0893C18.1783 17.9875 16.8345 18.0933 15.5196 18.1124C15.419 18.1142 15.419 18.2928 15.5196 18.294C16.8793 18.3136 18.2709 18.431 19.6271 18.3102C19.659 18.3073 19.6809 18.2905 19.6953 18.2685C20.0388 18.564 20.3709 18.8779 20.6821 19.222C19.3363 19.1913 17.9826 19.2572 16.6393 19.2798C16.5507 19.2815 16.5507 19.4382 16.6393 19.4399C18.0608 19.4642 19.4942 19.5371 20.9171 19.4914C21.2318 19.862 21.5345 20.2494 21.8078 20.6709C20.3839 20.5824 18.9315 20.6871 17.5106 20.7114C17.407 20.7131 17.407 20.8964 17.5106 20.8981C18.9823 20.923 20.4884 21.038 21.9607 20.9305C22.1394 21.2225 22.3156 21.5168 22.4735 21.8313C22.6925 22.2684 22.8797 22.7304 23.041 23.2056C21.3597 23.2993 19.6963 23.4872 18.009 23.4751C17.9263 23.4745 17.9263 23.6214 18.009 23.6242C19.6978 23.6844 21.4364 23.7127 23.1113 23.4178C23.2656 23.9041 23.3916 24.4036 23.4822 24.9101C21.9228 24.8535 20.3082 24.961 18.7538 25.1177C18.6607 25.1269 18.6577 25.2854 18.7538 25.2883C20.3142 25.3345 21.9323 25.327 23.4867 25.1593C23.5021 25.1576 23.5096 25.1454 23.522 25.1391C23.5922 25.5831 23.639 26.0306 23.6554 26.477C21.6898 26.5013 19.7217 26.6545 17.7595 26.791C17.6779 26.7967 17.6764 26.9424 17.7595 26.9401C19.7237 26.8881 21.6958 26.8511 23.6564 26.6869C23.6629 27.1304 23.6495 27.5732 23.5997 28.008Z" fill="#1D1D1B" fill-opacity="0.75"/>
<path d="M22.3675 21.9292C20.7469 21.9385 19.1318 22.0437 17.5102 22.0067C17.4166 22.0044 17.4176 22.1697 17.5102 22.1749C19.1228 22.2634 20.7593 22.3258 22.3675 22.1246C22.4725 22.1113 22.478 21.9286 22.3675 21.9292Z" fill="#1D1D1B" fill-opacity="0.75"/>
<path d="M21.1208 7.88019C19.8911 7.86805 18.5797 8.21727 17.3668 8.43814C17.2911 8.45201 17.3081 8.60466 17.3852 8.5954C18.607 8.44739 19.9518 8.39362 21.1368 8.01606C21.2015 7.99525 21.188 7.88077 21.1208 7.88019Z" fill="#1D1D1B" fill-opacity="0.75"/>
<path d="M21.3703 6.25372C19.8981 6.31269 18.4876 6.40752 17.0139 6.25083C16.9337 6.24216 16.9138 6.40173 16.9945 6.41561C18.4179 6.66481 19.9733 6.77698 21.3957 6.4717C21.5018 6.44915 21.4769 6.24909 21.3703 6.25372Z" fill="#1D1D1B" fill-opacity="0.75"/>
</g>
<defs>
<clipPath id="clip0">
<rect width="31" height="36" fill="white"/>
</clipPath>
</defs>
</svg>
