<svg width="80" height="80" viewBox="0 0 80 80" fill="none" xmlns="http://www.w3.org/2000/svg">
<path d="M77.6562 75.3125H70.4688V31.2274C76.0065 28.5895 79.8438 22.9376 79.8438 16.4062C79.8438 7.35962 72.4841 0 63.4375 0C54.3909 0 47.0312 7.35962 47.0312 16.4062C47.0312 22.9376 50.8685 28.5895 56.4062 31.2274V75.3125H51.7188V58.9062C51.7188 57.6117 50.6696 56.5625 49.375 56.5625H42.3438V40.1562C42.3438 38.8617 41.2946 37.8125 40 37.8125H21.25C19.9554 37.8125 18.9062 38.8617 18.9062 40.1562V56.5625H11.875C10.5804 56.5625 9.53125 57.6117 9.53125 58.9062V75.3125H2.34375C1.04919 75.3125 0 76.3617 0 77.6562C0 78.9508 1.04919 80 2.34375 80H77.6562C78.9508 80 80 78.9508 80 77.6562C80 76.3617 78.9508 75.3125 77.6562 75.3125ZM51.7188 16.4062C51.7188 9.94446 56.9757 4.6875 63.4375 4.6875C69.8993 4.6875 75.1562 9.94446 75.1562 16.4062C75.1562 22.868 69.8993 28.125 63.4375 28.125C56.9757 28.125 51.7188 22.868 51.7188 16.4062ZM61.0938 32.6447C61.8597 32.7545 62.6416 32.8125 63.4375 32.8125C64.2334 32.8125 65.0153 32.7545 65.7812 32.6447V75.3125H61.0938V32.6447ZM47.0312 75.3125H32.9688V61.25H37.6562V68.2812C37.6562 69.5758 38.7054 70.625 40 70.625C41.2946 70.625 42.3438 69.5758 42.3438 68.2812V61.25H47.0312V75.3125ZM28.2812 42.5V49.5312C28.2812 50.8258 29.3304 51.875 30.625 51.875C31.9196 51.875 32.9688 50.8258 32.9688 49.5312V42.5H37.6562V56.5625C35.9546 56.5625 25.3064 56.5625 23.5938 56.5625V42.5H28.2812ZM14.2188 61.25H18.9062V68.2812C18.9062 69.5758 19.9554 70.625 21.25 70.625C22.5446 70.625 23.5938 69.5758 23.5938 68.2812V61.25H28.2812V75.3125H14.2188V61.25Z" fill="white"/>
<path d="M70.4688 16.4062C70.4688 15.1117 69.4196 14.0625 68.125 14.0625H58.75C57.4555 14.0625 56.4063 15.1117 56.4063 16.4062C56.4063 17.7008 57.4555 18.75 58.75 18.75H68.125C69.4196 18.75 70.4688 17.7008 70.4688 16.4062Z" fill="white"/>
</svg>
