<svg width="90" height="90" viewBox="0 0 90 90" fill="none" xmlns="http://www.w3.org/2000/svg">
<path d="M89.4603 42.2189L80.4604 34.7198C80.1982 34.5082 79.8721 34.3911 79.5351 34.388L67.0506 28.9662C67.3101 28.5644 67.5639 28.1616 67.7884 27.7556C73.4954 18.1211 73.3649 8.30359 67.4646 3.32385C63.9959 0.588708 59.5238 -0.533856 55.1745 0.239127C51.185 0.918782 47.603 3.08886 45.1537 6.31015C42.7044 3.08904 39.1224 0.918782 35.1329 0.239127C30.7838 -0.534383 26.3113 0.588181 22.843 3.32367C16.9426 8.30342 16.8124 18.1211 22.4972 27.7159C22.7075 28.0962 22.9469 28.4727 23.1875 28.849L9.90128 34.6319C9.78509 34.6852 9.6761 34.7532 9.57732 34.8342C9.56554 34.8434 9.55112 34.8449 9.53952 34.8546L0.539655 42.3537C0.139935 42.6869 -0.0585194 43.2035 0.0151319 43.7186C0.0887832 44.2337 0.424169 44.6738 0.901408 44.8816L9.00041 48.4024V73.5023C9.00744 73.55 9.01693 73.5972 9.02889 73.6438C9.0368 73.7885 9.06562 73.9312 9.11432 74.0676C9.15844 74.1551 9.21134 74.238 9.27216 74.315C9.31681 74.3975 9.36919 74.4753 9.42878 74.5476C9.53794 74.6511 9.66204 74.7377 9.79704 74.8042C9.83571 74.8253 9.86155 74.8599 9.90251 74.8776L9.9127 74.8822L9.91938 74.885L44.4021 89.8756L44.4073 89.8766C44.4309 89.8866 44.4581 89.8866 44.4822 89.8956C44.6446 89.9596 44.8172 89.9944 44.9918 89.9986L44.9983 90H44.9992H44.9999H45.0006H45.0015L45.008 89.9986C45.1825 89.9944 45.355 89.9596 45.5174 89.8956C45.5416 89.8866 45.5689 89.8868 45.5924 89.8766L45.5975 89.8756L80.0971 74.8776C80.6694 74.6291 81.0282 74.0523 80.9979 73.429L80.9925 73.4021C80.9929 73.39 80.9995 73.3798 80.9995 73.3675V48.2672L89.0971 44.747C89.5747 44.5397 89.9108 44.0996 89.9848 43.5843C90.0586 43.069 89.8602 42.5523 89.4603 42.2189ZM24.778 5.61731C26.9527 3.88786 29.6607 2.96741 32.4391 3.01329C37.1879 3.00766 41.5643 5.58409 43.8633 9.73901C44.1537 10.1664 44.6371 10.4222 45.1539 10.4222C45.6707 10.4222 46.1539 10.1663 46.4444 9.73901C48.3892 6.28853 51.7754 3.88856 55.6758 3.19643C59.1555 2.56053 62.741 3.44143 65.5296 5.61749C70.2698 9.61738 70.1394 17.8986 65.1854 26.266C61.2186 33.4399 50.3717 40.2857 45.154 43.2808C39.9364 40.2855 29.0893 33.4384 25.1007 26.2265C20.1682 17.8984 20.0379 9.61738 24.778 5.61731ZM4.32909 43.102L10.7513 37.7516L42.1698 51.4103L35.7495 56.76L4.32909 43.102ZM43.5 86.2131L12.0004 72.5193V49.7065L35.4024 59.8797C35.9223 60.1057 36.5252 60.0196 36.961 59.657L43.5 54.2085V86.2131ZM44.9987 49.3697L14.2606 36.0058L25.0021 31.3314C30.2566 37.7522 39.0879 43.3137 44.4182 46.3126C44.8746 46.5704 45.4327 46.5704 45.889 46.3126C51.1954 43.3272 59.9715 37.8021 65.2213 31.4414L75.7362 36.0074L44.9987 49.3697ZM77.9993 72.5186L46.4998 86.2131V54.0735L53.0402 59.5222C53.4754 59.8848 54.078 59.9709 54.5972 59.7449L77.9992 49.5713V72.5186H77.9993ZM54.2502 56.6252L47.9363 51.3651L79.3555 37.7052L85.6693 42.966L54.2502 56.6252Z" fill="white"/>
<path d="M31.5014 12.0179C31.8993 12.0181 32.281 11.8602 32.5622 11.5789C32.8435 11.2975 33.0015 10.9159 33.0013 10.5182V9.01842C33.0013 8.19007 32.3298 7.51868 31.5014 7.51868C30.6729 7.51868 30.0015 8.19007 30.0015 9.01842V10.5182C30.0013 10.9161 30.1591 11.2976 30.4406 11.5789C30.722 11.8601 31.1034 12.0182 31.5014 12.0179Z" fill="white"/>
<path d="M31.5014 15.0133C31.1034 15.0131 30.7218 15.171 30.4406 15.4523C30.1591 15.7337 30.0013 16.1153 30.0015 16.513V18.0128C30.0015 18.8411 30.6729 19.5125 31.5014 19.5125C32.3298 19.5125 33.0013 18.8411 33.0013 18.0128V16.513C33.0015 16.1151 32.8436 15.7336 32.5622 15.4523C32.281 15.171 31.8993 15.0131 31.5014 15.0133Z" fill="white"/>
<path d="M27.0014 15.0245H28.5013C29.3297 15.0245 30.0012 14.3531 30.0012 13.5248C30.0012 12.6964 29.3297 12.025 28.5013 12.025H27.0014C26.1729 12.025 25.5015 12.6964 25.5015 13.5248C25.5015 14.3531 26.1729 15.0245 27.0014 15.0245Z" fill="white"/>
<path d="M34.5014 15.0245H36.0013C36.8297 15.0245 37.5012 14.3531 37.5012 13.5248C37.5012 12.6964 36.8296 12.025 36.0013 12.025H34.5014C33.6729 12.025 33.0015 12.6964 33.0015 13.5248C33.0015 14.3531 33.6729 15.0245 34.5014 15.0245Z" fill="white"/>
</svg>
