<svg width="107" height="90" viewBox="0 0 107 90" fill="none" xmlns="http://www.w3.org/2000/svg">
<path d="M105.217 90V86.087H95.6652C98.9611 83.178 101.076 78.9592 101.55 74.3478H105.217C106.201 74.3478 107 73.4718 107 72.3913C106.985 57.2703 95.8158 45.0162 82.0333 45H76.8888L78.0705 39.1304H94.4775C95.377 39.1304 96.1354 38.3958 96.2469 37.4166L98.0302 21.7644C98.0938 21.2065 97.9353 20.6447 97.5948 20.2244C97.2552 19.8031 96.7659 19.5633 96.2538 19.5652H73.2003L72.0195 15.6522H74.9C75.8848 15.6522 76.6833 14.7761 76.6833 13.6957V1.95652C76.6833 0.87604 75.8848 0 74.9 0H62.4167C61.4318 0 60.6333 0.87604 60.6333 1.95652V5.86957H55.2833V9.78261H60.6333V13.6957C60.6438 13.7874 60.6603 13.8772 60.683 13.966C60.6804 14.031 60.6804 14.0959 60.683 14.1609L65.9337 37.1997L60.9738 62.6087H46.3667V35.2174C47.3515 35.2174 48.15 34.3414 48.15 33.2609V25.4348C48.15 24.3543 47.3515 23.4783 46.3667 23.4783H26.75C25.7652 23.4783 24.9667 24.3543 24.9667 25.4348V32.04C19.4974 33.3851 14.5375 36.5434 10.761 41.087C10.7392 41.087 10.7218 41.087 10.7 41.087H1.78333C0.798494 41.087 0 41.963 0 43.0435V50.8696C0 51.95 0.798494 52.8261 1.78333 52.8261H4.69518C3.9498 55.5774 3.57015 58.4329 3.56667 61.3037V72.3913C3.56667 73.4718 4.36516 74.3478 5.35 74.3478H9.02203C9.49573 78.9592 11.6108 83.178 14.9067 86.087H0V90H105.217ZM35.0319 86.087C38.3277 83.178 40.4428 78.9592 40.9165 74.3478H69.6554C70.1291 78.9592 72.2442 83.178 75.54 86.087H35.0319ZM85.6 86.087C79.4001 86.0793 74.145 81.0801 73.2595 74.3478H76.8618C77.7056 78.9076 81.3594 82.1835 85.6 82.1835C89.8406 82.1835 93.4944 78.9076 94.3382 74.3478H97.9405C97.055 81.0801 91.7999 86.0793 85.6 86.087ZM80.5783 74.3478H90.6217C89.8772 76.6922 87.8623 78.2628 85.6 78.2628C83.3377 78.2628 81.3228 76.6922 80.5783 74.3478ZM103.358 70.4348H71.7739C72.683 66.0718 74.7285 56.3952 76.3159 48.913H82.0333C93.1557 48.9283 102.418 58.2763 103.358 70.4348ZM83.8167 35.2174V23.4783H87.3833V35.2174H83.8167ZM92.8953 35.2174H90.95V23.4783H94.2328L92.8953 35.2174ZM80.25 23.4783V35.2174H78.0295L75.3545 23.4783H80.25ZM64.2 5.86957V3.91304H73.1167V11.7391H64.2V9.78261H67.7667V5.86957H64.2ZM69.4969 36.6982L64.7007 15.6522H68.2674L74.7946 37.278L68.1237 70.4348H64.2V64.7725L69.5108 37.5771C69.5665 37.2866 69.5622 36.9867 69.4969 36.6982ZM60.6333 66.5217V70.4348H46.3667V66.5217H60.6333ZM28.5333 31.3043V27.3913H44.5833V31.3043H28.5333ZM6.03094 48.913H3.56667V45H7.81427L7.00272 46.7788C6.7232 47.332 6.46807 47.909 6.22773 48.4841L6.03094 48.913ZM7.13333 61.3037C7.13507 57.5903 7.86565 53.9199 9.27368 50.5428L10.1505 48.6178C14.345 40.3523 22.2882 35.226 30.9105 35.2174H42.8V70.4348H7.13333V61.3037ZM29.9884 74.3478C29.2439 76.6922 27.2289 78.2628 24.9667 78.2628C22.7044 78.2628 20.6895 76.6922 19.9449 74.3478H29.9884ZM12.6261 74.3478H16.2285C17.0723 78.9076 20.726 82.1835 24.9667 82.1835C29.2073 82.1835 32.861 78.9076 33.7048 74.3478H37.3072C36.426 81.082 31.1674 86.0812 24.9667 86.0812C18.7659 86.0812 13.5074 81.082 12.6261 74.3478Z" fill="white"/>
</svg>
