<svg width="52" height="51" viewBox="0 0 52 51" fill="none" xmlns="http://www.w3.org/2000/svg">
<g clip-path="url(#clip0)">
<mask id="path-1-inside-1" fill="white">
<path d="M31.2246 41.9817H14.1892C12.9245 41.9817 11.8965 40.9528 11.8965 39.689V17.5042C11.8965 16.2405 12.9245 15.2115 14.1892 15.2115H16.3571C16.6102 15.2115 16.8156 15.417 16.8156 15.6701C16.8156 15.9232 16.6102 16.1286 16.3571 16.1286H14.1892C13.4307 16.1286 12.8136 16.7458 12.8136 17.5042V39.6881C12.8136 40.4465 13.4307 41.0637 14.1892 41.0637H31.2246C31.983 41.0637 32.6002 40.4465 32.6002 39.6881V37.5193C32.6002 37.2661 32.8057 37.0607 33.0588 37.0607C33.3119 37.0607 33.5173 37.2661 33.5173 37.5193V39.6881C33.5173 40.9528 32.4893 41.9817 31.2246 41.9817Z"/>
</mask>
<path d="M31.2246 41.9817H14.1892C12.9245 41.9817 11.8965 40.9528 11.8965 39.689V17.5042C11.8965 16.2405 12.9245 15.2115 14.1892 15.2115H16.3571C16.6102 15.2115 16.8156 15.417 16.8156 15.6701C16.8156 15.9232 16.6102 16.1286 16.3571 16.1286H14.1892C13.4307 16.1286 12.8136 16.7458 12.8136 17.5042V39.6881C12.8136 40.4465 13.4307 41.0637 14.1892 41.0637H31.2246C31.983 41.0637 32.6002 40.4465 32.6002 39.6881V37.5193C32.6002 37.2661 32.8057 37.0607 33.0588 37.0607C33.3119 37.0607 33.5173 37.2661 33.5173 37.5193V39.6881C33.5173 40.9528 32.4893 41.9817 31.2246 41.9817Z" fill="#00B6B8"/>
<path d="M31.2246 38.9817H14.1892V44.9817H31.2246V38.9817ZM14.1892 38.9817C14.5822 38.9817 14.8965 39.2967 14.8965 39.689H8.89648C8.89648 42.6088 11.2669 44.9817 14.1892 44.9817V38.9817ZM14.8965 39.689V17.5042H8.89648V39.689H14.8965ZM14.8965 17.5042C14.8965 17.8966 14.5822 18.2115 14.1892 18.2115V12.2115C11.2669 12.2115 8.89648 14.5844 8.89648 17.5042H14.8965ZM14.1892 18.2115H16.3571V12.2115H14.1892V18.2115ZM16.3571 18.2115C14.9534 18.2115 13.8156 17.0738 13.8156 15.6701H19.8156C19.8156 13.7601 18.2671 12.2115 16.3571 12.2115V18.2115ZM13.8156 15.6701C13.8156 14.2663 14.9534 13.1286 16.3571 13.1286V19.1286C18.2671 19.1286 19.8156 17.58 19.8156 15.6701H13.8156ZM16.3571 13.1286H14.1892V19.1286H16.3571V13.1286ZM14.1892 13.1286C11.7739 13.1286 9.81355 15.089 9.81355 17.5042H15.8136C15.8136 18.4027 15.0876 19.1286 14.1892 19.1286V13.1286ZM9.81355 17.5042V39.6881H15.8136V17.5042H9.81355ZM9.81355 39.6881C9.81355 42.1034 11.7739 44.0637 14.1892 44.0637V38.0637C15.0876 38.0637 15.8136 38.7897 15.8136 39.6881H9.81355ZM14.1892 44.0637H31.2246V38.0637H14.1892V44.0637ZM31.2246 44.0637C33.6399 44.0637 35.6002 42.1034 35.6002 39.6881H29.6002C29.6002 38.7897 30.3262 38.0637 31.2246 38.0637V44.0637ZM35.6002 39.6881V37.5193H29.6002V39.6881H35.6002ZM35.6002 37.5193C35.6002 38.923 34.4625 40.0607 33.0588 40.0607V34.0607C31.1488 34.0607 29.6002 35.6093 29.6002 37.5193H35.6002ZM33.0588 40.0607C31.655 40.0607 30.5173 38.923 30.5173 37.5193H36.5173C36.5173 35.6093 34.9687 34.0607 33.0588 34.0607V40.0607ZM30.5173 37.5193V39.6881H36.5173V37.5193H30.5173ZM30.5173 39.6881C30.5173 39.2975 30.8309 38.9817 31.2246 38.9817V44.9817C34.1477 44.9817 36.5173 42.6081 36.5173 39.6881H30.5173Z" fill="#00B6B8" mask="url(#path-1-inside-1)"/>
<mask id="path-3-inside-2" fill="white">
<path d="M35.8106 37.0622H18.7751C17.5105 37.0622 16.4824 36.0333 16.4824 34.7695V12.5856C16.4824 11.3219 17.5105 10.293 18.7751 10.293H31.2509C31.504 10.293 31.7094 10.4984 31.7094 10.7515C31.7094 11.0046 31.5049 11.21 31.2518 11.21H18.7751C18.0167 11.21 17.3995 11.8272 17.3995 12.5856V34.7695C17.3995 35.528 18.0167 36.1451 18.7751 36.1451H35.8106C36.569 36.1451 37.1862 35.528 37.1862 34.7695V17.3186C37.1862 17.0655 37.3916 16.8601 37.6447 16.8601C37.8978 16.8601 38.1032 17.0655 38.1032 17.3186V34.7695C38.1032 36.0342 37.0752 37.0622 35.8106 37.0622Z"/>
</mask>
<path d="M35.8106 37.0622H18.7751C17.5105 37.0622 16.4824 36.0333 16.4824 34.7695V12.5856C16.4824 11.3219 17.5105 10.293 18.7751 10.293H31.2509C31.504 10.293 31.7094 10.4984 31.7094 10.7515C31.7094 11.0046 31.5049 11.21 31.2518 11.21H18.7751C18.0167 11.21 17.3995 11.8272 17.3995 12.5856V34.7695C17.3995 35.528 18.0167 36.1451 18.7751 36.1451H35.8106C36.569 36.1451 37.1862 35.528 37.1862 34.7695V17.3186C37.1862 17.0655 37.3916 16.8601 37.6447 16.8601C37.8978 16.8601 38.1032 17.0655 38.1032 17.3186V34.7695C38.1032 36.0342 37.0752 37.0622 35.8106 37.0622Z" fill="#00B6B8"/>
<path d="M35.8106 34.0622H18.7751V40.0622H35.8106V34.0622ZM18.7751 34.0622C19.1681 34.0622 19.4824 34.3772 19.4824 34.7695H13.4824C13.4824 37.6893 15.8528 40.0622 18.7751 40.0622V34.0622ZM19.4824 34.7695V12.5856H13.4824V34.7695H19.4824ZM19.4824 12.5856C19.4824 12.978 19.1681 13.293 18.7751 13.293V7.29297C15.8528 7.29297 13.4824 9.66585 13.4824 12.5856H19.4824ZM18.7751 13.293H31.2509V7.29297H18.7751V13.293ZM31.2509 13.293C29.8472 13.293 28.7094 12.1552 28.7094 10.7515H34.7094C34.7094 8.84154 33.1609 7.29297 31.2509 7.29297V13.293ZM28.7094 10.7515C28.7094 9.35558 29.8403 8.21004 31.2518 8.21004V14.21C33.1696 14.21 34.7094 12.6536 34.7094 10.7515H28.7094ZM31.2518 8.21004H18.7751V14.21H31.2518V8.21004ZM18.7751 8.21004C16.3598 8.21004 14.3995 10.1704 14.3995 12.5856H20.3995C20.3995 13.4841 19.6735 14.21 18.7751 14.21V8.21004ZM14.3995 12.5856V34.7695H20.3995V12.5856H14.3995ZM14.3995 34.7695C14.3995 37.1848 16.3598 39.1451 18.7751 39.1451V33.1451C19.6735 33.1451 20.3995 33.8711 20.3995 34.7695H14.3995ZM18.7751 39.1451H35.8106V33.1451H18.7751V39.1451ZM35.8106 39.1451C38.2258 39.1451 40.1862 37.1848 40.1862 34.7695H34.1862C34.1862 33.8711 34.9121 33.1451 35.8106 33.1451V39.1451ZM40.1862 34.7695V17.3186H34.1862V34.7695H40.1862ZM40.1862 17.3186C40.1862 18.7224 39.0485 19.8601 37.6447 19.8601V13.8601C35.7347 13.8601 34.1862 15.4087 34.1862 17.3186H40.1862ZM37.6447 19.8601C36.241 19.8601 35.1032 18.7224 35.1032 17.3186H41.1032C41.1032 15.4087 39.5547 13.8601 37.6447 13.8601V19.8601ZM35.1032 17.3186V34.7695H41.1032V17.3186H35.1032ZM35.1032 34.7695C35.1032 34.3773 35.4184 34.0622 35.8106 34.0622V40.0622C38.7321 40.0622 41.1032 37.691 41.1032 34.7695H35.1032Z" fill="#00B6B8" mask="url(#path-3-inside-2)"/>
<mask id="path-5-inside-3" fill="white">
<path d="M37.6443 17.7774H31.2505C30.9974 17.7774 30.792 17.5719 30.792 17.3188V10.9241C30.792 10.671 30.9974 10.4656 31.2505 10.4656C31.5036 10.4656 31.7091 10.671 31.7091 10.9241V16.8603H37.6443C37.8974 16.8603 38.1029 17.0657 38.1029 17.3188C38.1029 17.5719 37.8984 17.7774 37.6443 17.7774Z"/>
</mask>
<path d="M37.6443 17.7774H31.2505C30.9974 17.7774 30.792 17.5719 30.792 17.3188V10.9241C30.792 10.671 30.9974 10.4656 31.2505 10.4656C31.5036 10.4656 31.7091 10.671 31.7091 10.9241V16.8603H37.6443C37.8974 16.8603 38.1029 17.0657 38.1029 17.3188C38.1029 17.5719 37.8984 17.7774 37.6443 17.7774Z" fill="#00B6B8"/>
<path d="M31.7091 16.8603H28.7091V19.8603H31.7091V16.8603ZM37.6443 14.7774H31.2505V20.7774H37.6443V14.7774ZM31.2505 14.7774C32.6543 14.7774 33.792 15.9151 33.792 17.3188H27.792C27.792 19.2288 29.3406 20.7774 31.2505 20.7774V14.7774ZM33.792 17.3188V10.9241H27.792V17.3188H33.792ZM33.792 10.9241C33.792 12.3279 32.6543 13.4656 31.2505 13.4656V7.46558C29.3406 7.46558 27.792 9.01415 27.792 10.9241H33.792ZM31.2505 13.4656C29.8468 13.4656 28.7091 12.3279 28.7091 10.9241H34.7091C34.7091 9.01415 33.1605 7.46558 31.2505 7.46558V13.4656ZM28.7091 10.9241V16.8603H34.7091V10.9241H28.7091ZM31.7091 19.8603H37.6443V13.8603H31.7091V19.8603ZM37.6443 19.8603C36.2406 19.8603 35.1029 18.7226 35.1029 17.3188H41.1029C41.1029 15.4089 39.5543 13.8603 37.6443 13.8603V19.8603ZM35.1029 17.3188C35.1029 15.919 36.2376 14.7774 37.6443 14.7774V20.7774C39.5591 20.7774 41.1029 19.2249 41.1029 17.3188H35.1029Z" fill="#00B6B8" mask="url(#path-5-inside-3)"/>
<mask id="path-7-inside-4" fill="white">
<path d="M37.6447 17.7764C37.5254 17.7764 37.4062 17.7297 37.3164 17.638L30.9225 11.0708C30.7465 10.8893 30.7501 10.5995 30.9317 10.4225C31.1124 10.2473 31.4049 10.251 31.5801 10.4316L37.9739 16.9988C38.15 17.1804 38.1463 17.4701 37.9647 17.6471C37.8758 17.7333 37.7602 17.7764 37.6447 17.7764Z"/>
</mask>
<path d="M37.6447 17.7764C37.5254 17.7764 37.4062 17.7297 37.3164 17.638L30.9225 11.0708C30.7465 10.8893 30.7501 10.5995 30.9317 10.4225C31.1124 10.2473 31.4049 10.251 31.5801 10.4316L37.9739 16.9988C38.15 17.1804 38.1463 17.4701 37.9647 17.6471C37.8758 17.7333 37.7602 17.7764 37.6447 17.7764Z" fill="#00B6B8"/>
<path d="M37.3164 17.638L35.1668 19.7307L35.1737 19.7378L37.3164 17.638ZM30.9225 11.0708L28.7688 13.1593L28.7731 13.1636L30.9225 11.0708ZM30.9317 10.4225L28.8434 8.2686L28.8377 8.2742L30.9317 10.4225ZM31.5801 10.4316L29.4262 12.5199L29.4306 12.5244L31.5801 10.4316ZM37.9739 16.9988L40.1276 14.9103L40.1234 14.906L37.9739 16.9988ZM37.9647 17.6471L40.0525 19.8015L40.0587 19.7954L37.9647 17.6471ZM37.6447 14.7764C38.3085 14.7764 38.9687 15.0378 39.459 15.5382L35.1737 19.7378C35.8438 20.4215 36.7424 20.7764 37.6447 20.7764V14.7764ZM39.4658 15.5452L33.072 8.97807L28.7731 13.1636L35.1669 19.7307L39.4658 15.5452ZM33.0762 8.9824C34.0499 9.98647 34.0301 11.5918 33.0257 12.5707L28.8377 8.2742C27.4702 9.60715 27.443 11.792 28.7688 13.1593L33.0762 8.9824ZM33.02 12.5763C32.0185 13.5473 30.4115 13.5362 29.4262 12.5199L33.734 8.34337C32.3983 6.96579 30.2063 6.94729 28.8435 8.2686L33.02 12.5763ZM29.4306 12.5244L35.8244 19.0915L40.1234 14.906L33.7296 8.33888L29.4306 12.5244ZM35.8202 19.0872C34.8465 18.0831 34.8664 16.4778 35.8707 15.4989L40.0587 19.7954C41.4262 18.4625 41.4534 16.2776 40.1276 14.9103L35.8202 19.0872ZM35.877 15.4928C36.3722 15.0129 37.0156 14.7764 37.6447 14.7764V20.7764C38.5048 20.7764 39.3794 20.4538 40.0525 19.8015L35.877 15.4928Z" fill="#00B6B8" mask="url(#path-7-inside-4)"/>
</g>
<path d="M17.6219 3.91266C17.9219 3.91266 18.1739 3.98266 18.3779 4.12266C18.5859 4.25866 18.7479 4.45466 18.8639 4.71066L18.4079 4.92666C18.2799 4.53066 18.0139 4.33266 17.6099 4.33266C17.3099 4.33266 17.0739 4.43466 16.9019 4.63866C16.7339 4.83866 16.6499 5.11666 16.6499 5.47266C16.6499 5.82866 16.7339 6.10866 16.9019 6.31266C17.0739 6.51266 17.3099 6.61266 17.6099 6.61266C17.8419 6.61266 18.0279 6.56066 18.1679 6.45666C18.3119 6.34866 18.4059 6.19466 18.4499 5.99466L18.8939 6.15066C18.7899 6.43066 18.6299 6.64866 18.4139 6.80466C18.1979 6.95666 17.9339 7.03266 17.6219 7.03266C17.1699 7.03266 16.8139 6.89466 16.5539 6.61866C16.2979 6.34266 16.1699 5.96066 16.1699 5.47266C16.1699 4.98466 16.2979 4.60266 16.5539 4.32666C16.8139 4.05066 17.1699 3.91266 17.6219 3.91266ZM21.1586 3.91266C21.3026 3.91266 21.4126 3.93266 21.4886 3.97266L21.3926 4.44066C21.2966 4.38866 21.1706 4.36266 21.0146 4.36266C20.8866 4.36266 20.7606 4.40066 20.6366 4.47666C20.5166 4.54866 20.4166 4.66066 20.3366 4.81266C20.2606 4.96066 20.2226 5.14066 20.2226 5.35266V6.97266H19.7426V3.97266H20.1326L20.1986 4.46466C20.3666 4.09666 20.6866 3.91266 21.1586 3.91266ZM23.8462 6.76266C23.6462 6.94266 23.3882 7.03266 23.0722 7.03266C22.8282 7.03266 22.6282 6.96666 22.4722 6.83466C22.3202 6.70266 22.2422 6.50066 22.2382 6.22866V4.38666H21.6382V3.97266H22.2382V3.25266L22.7182 3.12066V3.97266H23.8282V4.38666H22.7182V6.14466C22.7182 6.28866 22.7582 6.39866 22.8382 6.47466C22.9222 6.54666 23.0322 6.58266 23.1682 6.58266C23.3602 6.58266 23.5302 6.50866 23.6782 6.36066L23.8462 6.76266ZM24.9798 6.16866C24.9798 6.32066 25.0018 6.42666 25.0458 6.48666C25.0938 6.54266 25.1798 6.57066 25.3038 6.57066C25.3878 6.57066 25.4598 6.56466 25.5198 6.55266C25.5838 6.54066 25.6578 6.51866 25.7418 6.48666L25.6638 6.94866C25.5318 7.00466 25.3838 7.03266 25.2198 7.03266C24.9758 7.03266 24.7938 6.96666 24.6738 6.83466C24.5578 6.70266 24.4998 6.50066 24.4998 6.22866V2.59266H24.9798V6.16866ZM30.9038 5.29866H29.6738V6.56466H29.2238V5.29866H27.9878V4.84866H29.2238V3.58866H29.6738V4.84866H30.9038V5.29866ZM35.1238 3.91266C35.4238 3.91266 35.6758 3.98266 35.8798 4.12266C36.0878 4.25866 36.2498 4.45466 36.3658 4.71066L35.9098 4.92666C35.7818 4.53066 35.5158 4.33266 35.1118 4.33266C34.8118 4.33266 34.5758 4.43466 34.4038 4.63866C34.2358 4.83866 34.1518 5.11666 34.1518 5.47266C34.1518 5.82866 34.2358 6.10866 34.4038 6.31266C34.5758 6.51266 34.8118 6.61266 35.1118 6.61266C35.3438 6.61266 35.5298 6.56066 35.6698 6.45666C35.8138 6.34866 35.9078 6.19466 35.9518 5.99466L36.3958 6.15066C36.2918 6.43066 36.1318 6.64866 35.9158 6.80466C35.6998 6.95666 35.4358 7.03266 35.1238 7.03266C34.6718 7.03266 34.3158 6.89466 34.0558 6.61866C33.7998 6.34266 33.6718 5.96066 33.6718 5.47266C33.6718 4.98466 33.7998 4.60266 34.0558 4.32666C34.3158 4.05066 34.6718 3.91266 35.1238 3.91266Z" fill="#00B6B8"/>
<path d="M18.5458 47.4048C18.8458 47.4048 19.0978 47.4748 19.3018 47.6148C19.5098 47.7508 19.6718 47.9468 19.7878 48.2028L19.3318 48.4188C19.2038 48.0228 18.9378 47.8248 18.5338 47.8248C18.2338 47.8248 17.9978 47.9268 17.8258 48.1308C17.6578 48.3308 17.5738 48.6088 17.5738 48.9648C17.5738 49.3208 17.6578 49.6008 17.8258 49.8048C17.9978 50.0048 18.2338 50.1048 18.5338 50.1048C18.7658 50.1048 18.9518 50.0528 19.0918 49.9488C19.2358 49.8408 19.3298 49.6868 19.3738 49.4868L19.8178 49.6428C19.7138 49.9228 19.5538 50.1408 19.3378 50.2968C19.1218 50.4488 18.8578 50.5248 18.5458 50.5248C18.0938 50.5248 17.7378 50.3868 17.4778 50.1108C17.2218 49.8348 17.0938 49.4528 17.0938 48.9648C17.0938 48.4768 17.2218 48.0948 17.4778 47.8188C17.7378 47.5428 18.0938 47.4048 18.5458 47.4048ZM22.0825 47.4048C22.2265 47.4048 22.3365 47.4248 22.4125 47.4648L22.3165 47.9328C22.2205 47.8808 22.0945 47.8548 21.9385 47.8548C21.8105 47.8548 21.6845 47.8928 21.5605 47.9688C21.4405 48.0408 21.3405 48.1528 21.2605 48.3048C21.1845 48.4528 21.1465 48.6328 21.1465 48.8448V50.4648H20.6665V47.4648H21.0565L21.1225 47.9568C21.2905 47.5888 21.6105 47.4048 22.0825 47.4048ZM24.7701 50.2548C24.5701 50.4348 24.3121 50.5248 23.9961 50.5248C23.7521 50.5248 23.5521 50.4588 23.3961 50.3268C23.2441 50.1948 23.1661 49.9928 23.1621 49.7208V47.8788H22.5621V47.4648H23.1621V46.7448L23.6421 46.6128V47.4648H24.7521V47.8788H23.6421V49.6368C23.6421 49.7808 23.6821 49.8908 23.7621 49.9668C23.8461 50.0388 23.9561 50.0748 24.0921 50.0748C24.2841 50.0748 24.4541 50.0008 24.6021 49.8528L24.7701 50.2548ZM25.9038 49.6608C25.9038 49.8128 25.9258 49.9188 25.9698 49.9788C26.0178 50.0348 26.1038 50.0628 26.2278 50.0628C26.3118 50.0628 26.3838 50.0568 26.4438 50.0448C26.5078 50.0328 26.5818 50.0108 26.6658 49.9788L26.5878 50.4408C26.4558 50.4968 26.3078 50.5248 26.1438 50.5248C25.8998 50.5248 25.7178 50.4588 25.5978 50.3268C25.4818 50.1948 25.4238 49.9928 25.4238 49.7208V46.0848H25.9038V49.6608ZM31.8278 48.7908H30.5978V50.0568H30.1478V48.7908H28.9118V48.3408H30.1478V47.0808H30.5978V48.3408H31.8278V48.7908ZM37.1194 47.4648L35.8714 50.4648H35.3914L34.1434 47.4648H34.6894L35.6374 49.9788L36.6154 47.4648H37.1194Z" fill="#00B6B8"/>
<defs>
<clipPath id="clip0">
<rect width="31.6893" height="31.6893" fill="white" transform="translate(9.15527 10.293)"/>
</clipPath>
</defs>
</svg>
