<svg width="31" height="31" viewBox="0 0 31 31" fill="none" xmlns="http://www.w3.org/2000/svg">
<g clip-path="url(#clip0)">
<path d="M14.6053 15.5991C14.3685 15.8356 14.3685 16.2197 14.6053 16.4569C14.842 16.6941 15.2252 16.6941 15.4615 16.4569C15.6982 16.2197 15.6982 15.8356 15.4615 15.5991C15.2252 15.3618 14.842 15.3618 14.6053 15.5991Z" fill="#00B6B8"/>
<path d="M24.2326 1.80457C23.1936 2.61052 22.9105 3.02594 19.2256 6.67984L17.0166 6.3194L18.0303 5.30373C18.7403 4.59233 18.7405 3.44135 18.0303 2.72996C17.3205 2.0188 16.1711 2.01856 15.4613 2.72996L12.5981 5.59876L2.58466 3.9653C1.93756 3.86008 1.27557 4.07455 0.812477 4.53854C-0.0779894 5.43075 0.042868 6.90686 1.05869 7.64338L11.0373 14.8839L9.16914 16.756C8.5289 17.3975 7.85508 18.2797 7.16258 19.3814L2.50897 18.0103C1.82214 17.8081 1.08044 17.9975 0.573127 18.5048C-0.290613 19.3703 -0.160059 20.8075 0.843223 21.5038L4.65816 24.1498C3.99403 25.6183 3.59031 26.6802 3.57162 26.7293C3.48695 26.9525 3.54111 27.2049 3.70951 27.3736C3.87885 27.5433 4.13097 27.5961 4.35258 27.5118C4.40154 27.4933 5.46135 27.0885 6.92701 26.4231L9.56814 30.2457C10.2642 31.2526 11.6986 31.3801 12.5614 30.5156C13.0676 30.0078 13.2565 29.2647 13.0546 28.5765L11.6863 23.914C12.7866 23.2197 13.6666 22.5445 14.3066 21.9035L16.1751 20.0314L23.4012 30.0296C24.1375 31.0491 25.6107 31.1676 26.5002 30.2763C26.9631 29.8125 27.1771 29.1488 27.0724 28.5002L25.4421 18.4679L28.3051 15.5993C29.0151 14.8879 29.0151 13.7362 28.3051 13.0251C27.5953 12.3137 26.4465 12.3137 25.7365 13.0251L24.7226 14.0407L24.3631 11.8274C28.0137 8.13154 28.4217 7.85452 29.2265 6.81349C29.2275 6.81231 29.2286 6.81089 29.2296 6.80946C31.0971 4.38451 31.5341 1.93538 30.3164 0.714728C29.0983 -0.504978 26.6537 -0.0675238 24.2326 1.80457ZM16.3175 3.58804C16.554 3.35083 16.9374 3.35083 17.1741 3.58804C17.4109 3.82525 17.4106 4.20844 17.1741 4.44565L15.5436 6.07911L14.0708 5.83882L16.3175 3.58804ZM1.76869 6.66041C1.35432 6.36016 1.30679 5.75896 1.66889 5.39639C1.85738 5.20728 2.12748 5.11984 2.39048 5.16273L18.1705 7.73698L11.9046 14.0149L1.76869 6.66041ZM1.4293 19.3632C1.62277 19.1696 1.90563 19.097 2.16745 19.1743L6.51997 20.4568C6.07486 21.2379 5.62572 22.1007 5.17777 23.0346L1.53265 20.5063C1.15022 20.2409 1.10007 19.6928 1.4293 19.3632ZM11.7048 29.6583C11.3784 29.9853 10.8306 29.9412 10.5636 29.5549L8.04027 25.9025C8.97307 25.4532 9.83445 25.0029 10.613 24.5579L11.8928 28.9187C11.9699 29.1812 11.8978 29.4647 11.7048 29.6583ZM26.5929 13.8829C26.8295 13.6459 27.2121 13.6457 27.4489 13.8829C27.6856 14.1201 27.6854 14.504 27.4489 14.7412L25.2023 16.992L24.9627 15.5164L26.5929 13.8829ZM25.877 28.6947C25.9198 28.959 25.8326 29.2296 25.6441 29.4185C25.2839 29.7794 24.6834 29.7353 24.3823 29.3182L17.0421 19.1627L23.308 12.8845L25.877 28.6947ZM13.4505 21.0454C12.7842 21.7132 11.8091 22.4341 10.5523 23.1884C8.91844 24.1688 6.98496 25.0972 5.24092 25.8394C6.00178 24.0446 6.94593 22.076 7.94543 20.4203C8.67649 19.2084 9.37632 18.2641 10.0255 17.6138C24.8156 2.83043 23.9393 3.59301 24.8369 2.8738C25.8326 2.81005 26.7091 3.10627 27.3193 3.71766C27.9295 4.32906 28.2254 5.20752 28.1617 6.20494C27.4423 7.10639 28.1944 6.23693 13.4505 21.0454ZM29.1979 4.61082C29.0044 3.94208 28.6608 3.34585 28.1757 2.85982C27.6906 2.37402 27.0955 2.02946 26.4283 1.83562C27.3046 1.39034 28.7802 0.891747 29.4602 1.57257C29.9971 2.11074 29.8637 3.29538 29.1979 4.61082Z" fill="#00B6B8"/>
<path d="M18.0304 12.1672L16.318 13.8827C16.0815 14.1197 16.0815 14.5038 16.318 14.7408C16.5545 14.9777 16.9377 14.9775 17.1744 14.7408L18.8865 13.0251C19.123 12.7883 19.123 12.4042 18.8865 12.1672C18.65 11.9303 18.2669 11.9303 18.0304 12.1672Z" fill="#00B6B8"/>
<path d="M21.4557 8.73535L19.7426 10.4515C19.5064 10.6885 19.5064 11.0726 19.7426 11.3096C19.9794 11.5463 20.3625 11.5463 20.599 11.3096L22.3119 9.59343C22.5484 9.35646 22.5484 8.97232 22.3119 8.73535C22.0753 8.49837 21.6922 8.49837 21.4557 8.73535Z" fill="#00B6B8"/>
</g>
<defs>
<clipPath id="clip0">
<rect width="31" height="31" fill="white"/>
</clipPath>
</defs>
</svg>
