<svg width="32" height="32" viewBox="0 0 32 32" fill="none" xmlns="http://www.w3.org/2000/svg">
<g clip-path="url(#clip0)">
<path d="M14.8713 20.413C14.9252 20.9344 15.3653 21.3226 15.8783 21.3226C15.9132 21.3226 15.9483 21.3208 15.9837 21.3172C16.5406 21.2596 16.9454 20.7616 16.8878 20.2047L16.4204 15.6813C16.3628 15.1244 15.8649 14.7198 15.3079 14.7773C14.7511 14.8349 14.3463 15.3329 14.4039 15.8897L14.8713 20.413Z" fill="#00B6B8"/>
<path d="M21.2152 21.3172C21.2506 21.3209 21.2857 21.3226 21.3206 21.3226C21.8335 21.3226 22.2737 20.9344 22.3277 20.413L22.795 15.8896C22.8526 15.3326 22.4478 14.8346 21.891 14.7771C21.334 14.7205 20.836 15.1244 20.7785 15.6812L20.3111 20.2046C20.2534 20.7616 20.6582 21.2596 21.2152 21.3172Z" fill="#00B6B8"/>
<path d="M13.3662 25.724C11.636 25.724 10.2285 27.1315 10.2285 28.8616C10.2285 30.5922 11.636 32.0001 13.3662 32.0001C15.0963 32.0001 16.5039 30.5922 16.5039 28.8616C16.5039 27.1315 15.0963 25.724 13.3662 25.724ZM13.3662 29.9726C12.7539 29.9726 12.2558 29.4742 12.2558 28.8615C12.2558 28.2492 12.7539 27.7512 13.3662 27.7512C13.9784 27.7512 14.4766 28.2492 14.4766 28.8615C14.4766 29.4742 13.9784 29.9726 13.3662 29.9726Z" fill="#00B6B8"/>
<path d="M23.8331 25.724C22.103 25.724 20.6953 27.1315 20.6953 28.8616C20.6953 30.5922 22.103 32.0001 23.8331 32.0001C25.5634 32.0001 26.9711 30.5922 26.9711 28.8616C26.9711 27.1315 25.5634 25.724 23.8331 25.724ZM23.8331 29.9726C23.2208 29.9726 22.7226 29.4742 22.7226 28.8615C22.7226 28.2492 23.2208 27.7512 23.8331 27.7512C24.4455 27.7512 24.9438 28.2492 24.9438 28.8615C24.9438 29.4742 24.4455 29.9726 23.8331 29.9726Z" fill="#00B6B8"/>
<path d="M29.8964 11.3969C29.7045 11.1486 29.4084 11.0032 29.0945 11.0032H8.88942L8.04105 7.74043C7.92482 7.29374 7.52151 6.98193 7.05996 6.98193H2.90527C2.34545 6.98193 1.8916 7.43579 1.8916 7.9956C1.8916 8.55542 2.34545 9.00927 2.90527 9.00927H6.27619L7.11699 12.2425C7.12159 12.2627 7.12686 12.2829 7.13267 12.3027L10.2615 24.3346C10.3778 24.7813 10.7811 25.0931 11.2426 25.0931H25.9576C26.4191 25.0931 26.8224 24.7813 26.9387 24.3346L30.0758 12.2719C30.1546 11.9684 30.0883 11.6451 29.8964 11.3969ZM25.1737 23.0659H12.0263L9.41653 13.0306H27.7834L25.1737 23.0659Z" fill="#00B6B8"/>
<path d="M14.4082 5.3074L20.3449 5.30767L18.7949 6.85777C18.3991 7.25364 18.3991 7.89549 18.7949 8.29123C18.9928 8.4891 19.2523 8.58817 19.5117 8.58817C19.771 8.58817 20.0305 8.48923 20.2284 8.29123L23.5077 5.01195C23.9036 4.61607 23.9036 3.97422 23.5077 3.57848L20.2261 0.296903C19.8302 -0.0989678 19.1884 -0.0989678 18.7925 0.296903C18.3966 0.692774 18.3966 1.33463 18.7925 1.7305L20.3425 3.28047L14.4082 3.2802C13.8484 3.2802 13.3945 3.73405 13.3945 4.29386C13.3947 4.85354 13.8484 5.3074 14.4082 5.3074Z" fill="#00B6B8"/>
</g>
<defs>
<clipPath id="clip0">
<rect width="32" height="32" fill="white"/>
</clipPath>
</defs>
</svg>
