<svg width="40" height="40" viewBox="0 0 40 40" fill="none" xmlns="http://www.w3.org/2000/svg">
<g clip-path="url(#clip0)">
<path d="M39.9999 21.3343V18.6676C39.9999 18.2994 39.7014 18.0009 39.3332 18.0009H29.3333V4.66763C29.3333 4.29947 29.0348 4.00097 28.6666 4.00097H23.2593C24.1593 3.12547 24.6669 1.92322 24.6666 0.667642C24.6666 0.299476 24.3681 0.000976562 23.9999 0.000976562C22.3594 0.00355989 20.8406 0.867475 20 2.2763C19.1593 0.867475 17.6405 0.00355989 16 0.000976562C15.6318 0.000976562 15.3333 0.299476 15.3333 0.667642C15.333 1.92322 15.8406 3.12547 16.7406 4.00097H11.3333C10.9651 4.00097 10.6666 4.29947 10.6666 4.66763V18.0009H0.666665C0.298499 18.0009 0 18.2994 0 18.6676V21.3343C0 21.7024 0.298499 22.0009 0.666665 22.0009H22.5586L18.5586 23.3343H8.66665C8.48981 23.3343 8.32032 23.4046 8.19532 23.5296L5.33332 26.3916L4.47132 25.5296C4.21099 25.2693 3.78899 25.2693 3.52866 25.5296L0.195333 28.8629C-0.0649165 29.1232 -0.0649165 29.5452 0.195333 29.8056L10.1953 39.8056C10.4556 40.0658 10.8776 40.0658 11.138 39.8056L14.4713 36.4722C14.7316 36.2119 14.7316 35.7899 14.4713 35.5296L14.3613 35.4196L18.2133 32.6676H31.3333C31.5001 32.6676 31.6609 32.605 31.7839 32.4922L39.0332 25.8476C40.1264 24.847 40.3168 23.1946 39.4799 21.9716C39.781 21.907 39.9971 21.6422 39.9999 21.3343ZM23.2479 1.41964C22.9582 2.65855 21.9909 3.62589 20.752 3.91563C21.0417 2.67672 22.009 1.70939 23.2479 1.41964ZM19.248 3.91563C18.009 3.62589 17.0417 2.65855 16.752 1.41964C17.9909 1.70939 18.9582 2.67672 19.248 3.91563ZM12 5.3343H27.9999V18.0009H20.8333L26.5333 10.401C26.711 10.164 26.711 9.83796 26.5333 9.60096L24.5333 6.9343C24.4074 6.76646 24.2098 6.66763 23.9999 6.66763H16C15.7901 6.66763 15.5925 6.76646 15.4666 6.9343L13.4666 9.60096C13.2889 9.83796 13.2889 10.164 13.4666 10.401L19.1666 18.0009H12V5.3343ZM16.8666 10.6676L18.31 14.6363L15.3333 10.6676H16.8666ZM15.3333 9.33429L16.3333 8.00096H18.3906L17.0573 9.33429H15.3333ZM18.2846 10.6676H21.7153L20 15.3836L18.2846 10.6676ZM18.9426 9.33429L20 8.27696L21.0573 9.33429H18.9426ZM22.9426 9.33429L21.6093 8.00096H23.6666L24.6666 9.33429H22.9426ZM24.6666 10.6676L21.69 14.6363L23.1333 10.6676H24.6666ZM1.33333 20.6676V19.3343H38.6666V20.6676H1.33333ZM28.4939 22.3839C28.4227 22.2495 28.3402 22.1213 28.2473 22.0009H34.2466L29.7466 26.0009H27.3806C28.6869 25.3095 29.1853 23.6901 28.4939 22.3839ZM10.6666 38.3916L1.60933 29.3342L3.99999 26.9436L13.0573 36.0009L10.6666 38.3916ZM38.1333 24.8675L31.0739 31.3342H18C17.861 31.3342 17.7257 31.3775 17.6126 31.4582L13.4053 34.4635L6.27599 27.3342L8.94265 24.6675H18.6666C18.7382 24.6676 18.8094 24.6561 18.8773 24.6335L25.6973 22.3602C26.4024 22.1236 27.1658 22.5034 27.4024 23.2085C27.6389 23.9136 27.2591 24.677 26.554 24.9136C26.5287 24.9221 26.5031 24.9298 26.4773 24.9368L22.5773 26.0008H20.6666V27.3342H29.9999C30.1631 27.3342 30.3206 27.2744 30.4426 27.1662L35.7859 22.4168C36.0873 22.1488 36.4766 22.0007 36.8799 22.0008H37.0179C37.9281 21.9976 38.6686 22.7328 38.6718 23.6428C38.6735 24.1089 38.4778 24.5538 38.1333 24.8675Z" fill="#175993"/>
<path d="M3.8051 28.1959L2.8623 29.1387L4.86245 31.1388L5.80525 30.196L3.8051 28.1959Z" fill="#175993"/>
<path d="M32.6663 2.66675H31.333V4.00008H32.6663V2.66675Z" fill="#175993"/>
<path d="M34.0003 1.3335H32.667V2.66683H34.0003V1.3335Z" fill="#175993"/>
<path d="M35.3333 2.66675H34V4.00008H35.3333V2.66675Z" fill="#175993"/>
<path d="M34.0003 4.00024H32.667V5.33357H34.0003V4.00024Z" fill="#175993"/>
<path d="M40.0003 0.666748H38.667V2.00008H40.0003V0.666748Z" fill="#175993"/>
<path d="M34.6663 8.00024H33.333V9.33357H34.6663V8.00024Z" fill="#175993"/>
<path d="M7.33333 7.3335H6V8.66683H7.33333V7.3335Z" fill="#175993"/>
<path d="M7.33333 10.0002H6V11.3336H7.33333V10.0002Z" fill="#175993"/>
<path d="M8.66634 8.66675H7.33301V10.0001H8.66634V8.66675Z" fill="#175993"/>
<path d="M6.00032 8.66675H4.66699V10.0001H6.00032V8.66675Z" fill="#175993"/>
<path d="M1.33333 4.00024H0V5.33357H1.33333V4.00024Z" fill="#175993"/>
<path d="M7.33333 0.666748H6V2.00008H7.33333V0.666748Z" fill="#175993"/>
</g>
<defs>
<clipPath id="clip0">
<rect width="40" height="40" fill="white"/>
</clipPath>
</defs>
</svg>
