<svg width="40" height="40" viewBox="0 0 40 40" fill="none" xmlns="http://www.w3.org/2000/svg">
<path d="M4 14.6667C3.99772 12.4584 2.20833 10.669 0 10.6667V12.0001C1.47266 12.0001 2.66667 13.1941 2.66667 14.6667V28.0001C2.66667 28.3682 2.96517 28.6667 3.33333 28.6667H5.05729L6.72786 30.3373C5.6556 30.9194 5.11523 32.1547 5.41536 33.3373C5.7155 34.5199 6.77995 35.3477 8 35.3477C9.22005 35.3477 10.2845 34.5199 10.5846 33.3373C10.8848 32.1547 10.3444 30.9194 9.27214 30.3373L10.9427 28.6667H29.724L31.3945 30.3373C30.3223 30.9194 29.7819 32.1547 30.082 33.3373C30.3822 34.5199 31.4466 35.3477 32.6667 35.3477C33.8867 35.3477 34.9512 34.5199 35.2513 33.3373C35.5514 32.1547 35.0111 30.9194 33.9388 30.3373L35.6094 28.6667H40V27.3334H4V14.6667ZM8 34.0001C7.26367 34.0001 6.66667 33.4031 6.66667 32.6667C6.66667 31.9304 7.26367 31.3334 8 31.3334C8.73633 31.3334 9.33333 31.9304 9.33333 32.6667C9.33333 33.4031 8.73633 34.0001 8 34.0001ZM8 29.724L6.94271 28.6667H9.05729L8 29.724ZM32.6667 34.0001C31.9303 34.0001 31.3333 33.4031 31.3333 32.6667C31.3333 31.9304 31.9303 31.3334 32.6667 31.3334C33.403 31.3334 34 31.9304 34 32.6667C34 33.4031 33.403 34.0001 32.6667 34.0001ZM32.6667 29.724L31.6094 28.6667H33.724L32.6667 29.724Z" fill="#175993"/>
<path d="M39.333 11.3334H26.6663V5.33341C26.6663 4.96525 26.3678 4.66675 25.9997 4.66675H5.99967C5.63151 4.66675 5.33301 4.96525 5.33301 5.33341V25.3334C5.33301 25.7016 5.63151 26.0001 5.99967 26.0001H39.333C39.7012 26.0001 39.9997 25.7016 39.9997 25.3334V12.0001C39.9997 11.6319 39.7012 11.3334 39.333 11.3334ZM16.2549 8.71753C16.0059 8.61434 15.7191 8.6713 15.5283 8.86206L13.9997 10.3907V6.00008H17.9997V11.3334H16.6663V9.33341C16.6663 9.06388 16.5039 8.82072 16.2549 8.71753ZM25.333 24.6667H6.66634V6.00008H12.6663V12.0001C12.6663 12.2696 12.8288 12.5128 13.0778 12.616C13.3268 12.7192 13.6136 12.6619 13.8044 12.4714L15.333 10.9428V12.0001C15.333 12.3682 15.6315 12.6667 15.9997 12.6667H18.6663C19.0345 12.6667 19.333 12.3682 19.333 12.0001V6.00008H25.333V24.6667ZM31.333 12.6667H33.9997V16.6667H31.333V12.6667ZM38.6663 24.6667H26.6663V12.6667H29.9997V17.3334C29.9997 17.7016 30.2982 18.0001 30.6663 18.0001H34.6663C35.0345 18.0001 35.333 17.7016 35.333 17.3334V12.6667H38.6663V24.6667Z" fill="#175993"/>
<path d="M9.52832 18.1953L7.52832 20.1953L8.47103 21.138L9.33301 20.276V23.3333H10.6663V20.276L11.5283 21.138L12.471 20.1953L10.471 18.1953C10.2106 17.9352 9.78874 17.9352 9.52832 18.1953Z" fill="#175993"/>
<path d="M14.8623 18.1953L12.8623 20.1953L13.805 21.138L14.667 20.276V23.3333H16.0003V20.276L16.8623 21.138L17.805 20.1953L15.805 18.1953C15.5446 17.9352 15.1227 17.9352 14.8623 18.1953Z" fill="#175993"/>
</svg>
