<svg width="40" height="40" viewBox="0 0 40 40" fill="none" xmlns="http://www.w3.org/2000/svg">
<path d="M29.5674 14.3085L21.5281 7.269C21.102 6.90023 20.5611 6.69535 19.9956 6.69535C19.4302 6.69535 18.8893 6.90023 18.4631 7.269L15.6113 9.76849C15.4474 9.16206 15.3572 8.52284 15.3572 7.85905C15.3572 6.25282 15.8653 4.74493 16.7832 3.62221C17.6518 2.55685 18.7991 1.96681 19.9956 1.96681C22.5525 1.96681 24.634 4.60561 24.634 7.85905C24.634 8.39992 25.0765 8.84245 25.6174 8.84245C26.1583 8.84245 26.6008 8.39992 26.6008 7.85905C26.6008 3.52387 23.6342 0 19.9956 0C18.1927 0 16.5127 0.844089 15.2589 2.37656C14.0542 3.85167 13.3904 5.79389 13.3904 7.85905C13.3904 9.02274 13.6035 10.1455 14.005 11.178L10.432 14.3085C9.53875 15.0953 9.02246 16.2262 9.02246 17.4145V35.0666C9.02246 37.7873 11.2351 40 13.9559 40H26.0436C28.7643 40 30.977 37.7873 30.977 35.0666V17.4145C30.977 16.2262 30.4607 15.0953 29.5674 14.3085ZM29.0102 35.0666C29.0102 36.7056 27.6826 38.0332 26.0436 38.0332H13.9477C12.3087 38.0332 10.9811 36.7056 10.9811 35.0666V17.4145C10.9811 16.7916 11.2515 16.1934 11.7186 15.7837L14.9557 12.9482C15.054 13.0793 15.1524 13.2104 15.2507 13.3415C16.5045 14.874 18.1845 15.7181 19.9874 15.7181C20.5283 15.7181 20.9708 15.2756 20.9708 14.7347C20.9708 14.1938 20.5283 13.7513 19.9874 13.7513C18.7828 13.7513 17.6436 13.1612 16.775 12.0959C16.6602 11.9484 16.5455 11.8009 16.439 11.6452L19.7498 8.74411C19.8317 8.67035 19.9219 8.65396 19.9874 8.65396C20.053 8.65396 20.1431 8.67035 20.2251 8.74411L28.2644 15.7837C28.7315 16.1934 29.002 16.7916 29.002 17.4145V35.0666H29.0102Z" fill="#175993"/>
<path d="M21.0778 24.8719H18.9143C18.1521 24.8719 17.5293 24.249 17.5293 23.4869C17.5293 22.7248 18.1521 22.1019 18.9143 22.1019H22.725C23.2658 22.1019 23.7084 21.6594 23.7084 21.1185C23.7084 20.5777 23.2658 20.1351 22.725 20.1351H20.9794V18.8567C20.9794 18.3158 20.5369 17.8733 19.996 17.8733C19.4551 17.8733 19.0126 18.3158 19.0126 18.8567V20.1351H18.9143C17.0622 20.1351 15.5625 21.643 15.5625 23.4869C15.5625 25.339 17.0704 26.8387 18.9143 26.8387H21.0778C21.8399 26.8387 22.4627 27.4615 22.4627 28.2236C22.4627 28.9858 21.8399 29.6086 21.0778 29.6086H17.1933C16.6524 29.6086 16.2099 30.0511 16.2099 30.592C16.2099 31.1329 16.6524 31.5754 17.1933 31.5754H19.0126V32.8784C19.0126 33.4193 19.4551 33.8618 19.996 33.8618C20.5369 33.8618 20.9794 33.4193 20.9794 32.8784V31.5754H21.0942C21.1023 31.5754 21.1105 31.5754 21.1187 31.5754C22.9462 31.5508 24.4295 30.0593 24.4295 28.2236C24.4295 26.3715 22.9216 24.8719 21.0778 24.8719Z" fill="#175993"/>
</svg>
