<svg width="40" height="40" viewBox="0 0 40 40" fill="none" xmlns="http://www.w3.org/2000/svg">
<path d="M20.0005 5.33716C11.5457 5.33716 4.66699 12.2159 4.66699 20.6707C4.66699 29.1254 11.5457 36.0041 20.0005 36.0041C28.4553 36.0041 35.334 29.1254 35.334 20.6706C35.334 12.2158 28.4553 5.33716 20.0005 5.33716ZM20.0005 34.6707C12.2811 34.6707 6.00036 28.3907 6.00036 20.6706C6.00036 12.9505 12.2811 6.67045 20.0005 6.67045C27.7206 6.67045 34.0006 12.9505 34.0006 20.6706C34.0006 28.3907 27.7206 34.6707 20.0005 34.6707Z" fill="#175993"/>
<path d="M26.4347 6.75396C26.3734 6.72599 26.3087 6.70662 26.242 6.69795L26.088 6.67724C25.8507 6.64326 25.6154 6.74256 25.4707 6.93256C25.3254 7.12256 25.2927 7.3746 25.3847 7.59522C25.8426 8.68992 26.388 10.9026 25.6907 11.4106L24.1454 12.0285C22.9753 12.4965 22.1553 13.5712 22.0053 14.8372L21.9953 14.9139C21.9587 15.1792 21.742 15.2512 21.6506 15.2699C21.4853 15.3033 21.2646 15.2633 21.138 15.0512L20.4759 13.9479C20.2326 13.5418 19.7833 13.3005 19.3166 13.3292C18.8466 13.3532 18.4313 13.6325 18.2313 14.0592C17.636 15.3305 16.8886 17.1652 16.7073 18.6846C16.6513 19.1559 16.7353 19.6319 16.95 20.0619L17.7187 21.5993C17.9913 22.1433 18.4094 22.6046 18.9287 22.9326C19.4073 23.2347 20.2947 23.844 20.86 24.5266C21.5034 25.3046 22.37 25.8074 23.3007 25.9574C23.2634 27.206 23.3454 29.2587 24.1954 30.1654C24.4928 30.482 24.8654 30.6561 25.2781 30.6701C25.3528 30.6801 25.4841 30.6934 25.6541 30.6934C26.1488 30.6934 26.9748 30.5814 27.7302 29.9574C28.7822 29.0881 29.3215 27.5587 29.3335 25.4113L30.2882 21.114L30.6509 21.7179C30.9456 22.2093 31.4382 22.5546 32.0009 22.6653C32.5636 22.776 33.1502 22.6413 33.6096 22.2973L35.067 21.204C35.2349 21.0779 35.3336 20.8806 35.3336 20.6706C35.3334 14.7194 31.8401 9.25664 26.4347 6.75396ZM32.8094 21.2307C32.6494 21.35 32.4527 21.3947 32.2573 21.3568C32.0613 21.3188 31.8966 21.2028 31.794 21.0315L31.1026 19.8788C30.8747 19.4981 30.4453 19.2981 30.0053 19.3695C29.5673 19.4408 29.2219 19.7668 29.1253 20.2002L28.0159 25.1929C28.0052 25.2402 27.9999 25.2889 27.9999 25.3376C27.9999 27.0689 27.6186 28.3063 26.8973 28.9163C26.238 29.4736 25.4839 29.3529 25.4599 29.3497C25.3739 29.3336 25.3086 29.403 25.1686 29.2536C24.7533 28.8103 24.5433 27.2629 24.6579 25.4896C24.6713 25.2789 24.5959 25.0689 24.4513 24.9149C24.306 24.7596 24.0993 24.6709 23.886 24.6709C23.1386 24.6709 22.41 24.3089 21.8867 23.6776C21.238 22.8929 20.3066 22.2262 19.64 21.8055C19.3266 21.6075 19.0747 21.3302 18.9113 21.0035L18.1426 19.4661C18.0447 19.2701 18.006 19.0541 18.0313 18.8421C18.1947 17.4781 18.932 15.7208 19.3906 14.7294L19.9953 15.7368C20.3953 16.4034 21.1493 16.7308 21.9187 16.5755C22.6647 16.4228 23.214 15.8421 23.3167 15.0947L23.3307 14.9894C23.422 14.2128 23.924 13.5528 24.6407 13.2661L26.248 12.6234C26.2814 12.61 26.3147 12.5934 26.346 12.5747C27.6127 11.8054 27.4487 9.964 27.116 8.61601C31.2447 11.0607 33.8808 15.5048 33.9961 20.3408L32.8094 21.2307Z" fill="#175993"/>
<path d="M16.8567 29.9181L16.4527 29.5147C15.9627 29.024 15.3906 28.6374 14.7534 28.364L12.6973 27.4827C11.8686 27.1274 11.3333 26.3153 11.3333 25.4134V24.41C11.3333 23.796 11.032 23.2213 10.5273 22.8713C10.0226 22.522 9.37799 22.4426 8.8033 22.6573L5.60194 23.8573C5.28061 23.978 5.10264 24.3227 5.19194 24.6547C6.69258 30.2434 11.3267 34.5827 16.9981 35.7088C17.0421 35.7174 17.086 35.7214 17.1288 35.7214C17.4214 35.7214 17.6867 35.5288 17.7701 35.2381L18.0141 34.3834C18.4674 32.7962 18.024 31.0848 16.8567 29.9181ZM16.7321 34.0168L16.66 34.2675C11.9513 33.1109 8.11329 29.5154 6.64992 24.8888L9.27127 23.9061C9.43995 23.8421 9.62057 23.8648 9.76792 23.9674C9.91526 24.0695 9.99995 24.2308 9.99995 24.4101V25.4134C9.99995 26.8495 10.8526 28.1428 12.172 28.7082L14.228 29.5895C14.7094 29.7961 15.1407 30.0882 15.5101 30.4575L15.9141 30.8608C16.7387 31.6855 17.0527 32.8948 16.7321 34.0168Z" fill="#175993"/>
<path d="M13.0115 7.64981C12.8029 7.39247 12.4368 7.32778 12.1522 7.49778C7.74945 10.1265 4.95943 14.7439 4.68942 19.8486C4.67739 20.0746 4.78075 20.2913 4.96411 20.4239C5.07943 20.5079 5.21615 20.5506 5.35482 20.5506C5.43685 20.5506 5.51881 20.5352 5.59615 20.5059L9.7315 18.8738C10.7222 18.4772 11.2335 17.3745 10.8962 16.3625C10.8142 16.1151 10.8775 15.8472 11.0615 15.6625L12.9829 13.7411C13.6389 13.0858 14.0002 12.2138 14.0002 11.2858V10.4184C14.0002 9.4185 13.6489 8.43513 13.0115 7.64981ZM12.6668 11.2852C12.6668 11.8572 12.4442 12.3938 12.0395 12.7978L10.1181 14.7192C9.57478 15.2632 9.38814 16.0539 9.6315 16.7832C9.74619 17.1265 9.5722 17.5005 9.23681 17.6345L6.11545 18.8719C6.63343 14.8392 8.88282 11.2305 12.3008 8.97779C12.5395 9.42116 12.6668 9.9171 12.6668 10.4178V11.2852Z" fill="#175993"/>
<path d="M20.0004 0.00390625C19.3111 0.00390625 18.6157 0.0392191 17.9338 0.10922C17.5678 0.146564 17.3011 0.474536 17.3385 0.840555C17.3738 1.18392 17.6638 1.43923 18.0011 1.43923C18.0238 1.43923 18.0471 1.4379 18.0698 1.43525C18.7064 1.37056 19.3558 1.33728 20.0005 1.33728C20.3685 1.33728 20.6672 1.0386 20.6672 0.670632C20.6672 0.302659 20.3684 0.00390625 20.0004 0.00390625Z" fill="#175993"/>
<path d="M1.59603 23.1414C1.42205 22.1121 1.33337 21.0567 1.33337 20.0041C1.33337 19.7814 1.33736 19.5594 1.3454 19.3374C1.35806 18.9694 1.07009 18.6614 0.702038 18.6481C0.337347 18.6288 0.0260159 18.9234 0.0127345 19.2915C0.00398441 19.528 0 19.7654 0 20.0041C0 21.1307 0.0946884 22.2614 0.280706 23.3641C0.336019 23.6894 0.618053 23.9194 0.937353 23.9194C0.974697 23.9194 1.01204 23.9168 1.05001 23.9101C1.41267 23.8488 1.65736 23.5047 1.59603 23.1414Z" fill="#175993"/>
<path d="M4.36123 30.2C3.66513 29.1346 3.07716 27.9953 2.61379 26.8133C2.4791 26.4706 2.09246 26.3012 1.7498 26.4359C1.40714 26.5699 1.23776 26.9566 1.37245 27.2999C1.8691 28.5666 2.4991 29.7873 3.2445 30.9286C3.37247 31.1246 3.58583 31.2307 3.80318 31.2307C3.92849 31.2307 4.05521 31.1953 4.16787 31.1227C4.47584 30.9214 4.56256 30.508 4.36123 30.2Z" fill="#175993"/>
<path d="M2.82901 11.0853C2.49698 10.9274 2.099 11.068 1.94033 11.4C1.35298 12.63 0.891647 13.9247 0.568988 15.2474C0.481721 15.6054 0.700395 15.9661 1.05837 16.0533C1.11173 16.066 1.16501 16.072 1.21704 16.072C1.51704 16.072 1.7897 15.8673 1.86439 15.5633C2.16572 14.3293 2.59573 13.1213 3.1437 11.974C3.30237 11.6413 3.16167 11.244 2.82901 11.0853Z" fill="#175993"/>
<path d="M7.79471 4.99516C7.55267 4.71782 7.13204 4.68852 6.85399 4.93118C5.82797 5.8272 4.88999 6.83119 4.06662 7.91456C3.84396 8.20722 3.9006 8.6259 4.19396 8.84856C4.31459 8.94059 4.456 8.98457 4.59663 8.98457C4.79796 8.98457 4.99663 8.89324 5.12796 8.72121C5.89664 7.70925 6.77266 6.7719 7.73072 5.93587C8.00807 5.69384 8.03674 5.27251 7.79471 4.99516Z" fill="#175993"/>
<path d="M16.7471 38.3895C15.4944 38.1688 14.2611 37.8188 13.0824 37.3481C12.7397 37.2115 12.3524 37.3774 12.2157 37.7202C12.0791 38.0615 12.2457 38.4495 12.5878 38.5862C13.8511 39.0909 15.1731 39.4662 16.5158 39.7022C16.5544 39.7089 16.5931 39.7122 16.6318 39.7122C16.9498 39.7122 17.2312 39.4843 17.2884 39.1616C17.3518 38.7989 17.1098 38.4535 16.7471 38.3895Z" fill="#175993"/>
<path d="M25.132 38.6615C25.0467 38.3028 24.686 38.0828 24.3293 38.1668C23.0973 38.4595 21.8259 38.6268 20.55 38.6634C20.182 38.6734 19.892 38.9808 19.9026 39.3488C19.9133 39.7101 20.2093 39.9961 20.5686 39.9961C20.5747 39.9961 20.5813 39.9961 20.5886 39.9955C21.9553 39.9562 23.3173 39.7775 24.6374 39.4641C24.9953 39.3788 25.2167 39.0195 25.132 38.6615Z" fill="#175993"/>
<path d="M14.7685 1.37442C14.6572 1.02372 14.2819 0.830435 13.9312 0.941061C12.6338 1.35372 11.3738 1.9031 10.1865 2.57311C9.86577 2.75444 9.75311 3.16108 9.93382 3.48179C10.0565 3.69843 10.2825 3.82046 10.5151 3.82046C10.6259 3.82046 10.7385 3.79249 10.8418 3.73445C11.9491 3.10913 13.1252 2.59647 14.3352 2.21178C14.6859 2.10045 14.8799 1.72513 14.7685 1.37442Z" fill="#175993"/>
<path d="M9.70652 35.5781C8.64783 34.8774 7.6565 34.0641 6.75914 33.1614C6.49984 32.9007 6.07711 32.8988 5.81648 33.1588C5.55577 33.4188 5.55445 33.8408 5.81382 34.1022C6.77516 35.0688 7.8372 35.9401 8.97049 36.6908C9.08385 36.7655 9.21182 36.8015 9.33784 36.8015C9.55386 36.8015 9.76581 36.6969 9.89386 36.5022C10.0972 36.1954 10.0132 35.7815 9.70652 35.5781Z" fill="#175993"/>
<path d="M30.5709 36.2075C30.3796 35.8928 29.9696 35.7914 29.6549 35.9828C29.1069 36.3148 28.5349 36.6214 27.9548 36.8954C27.6222 37.0528 27.4788 37.4494 27.6362 37.7828C27.7502 38.0241 27.9895 38.1654 28.2395 38.1654C28.3348 38.1654 28.4316 38.1447 28.5242 38.1015C29.1463 37.8081 29.7589 37.4794 30.3463 37.1235C30.6609 36.9321 30.7615 36.5221 30.5709 36.2075Z" fill="#175993"/>
<path d="M39.8597 29.5948C39.6331 29.3034 39.2137 29.2514 38.9244 29.4774L32.9243 34.1441C32.7623 34.2708 32.667 34.4648 32.667 34.6708V36.6708C32.667 37.0388 32.9657 37.3374 33.3336 37.3374C33.7016 37.3374 34.0003 37.0388 34.0003 36.6708V34.9968L39.7424 30.5301C40.033 30.3042 40.0857 29.8855 39.8597 29.5948Z" fill="#175993"/>
<path d="M33.5449 34.038L31.5449 33.3714C31.1942 33.2534 30.8175 33.444 30.7015 33.7927C30.5849 34.142 30.7735 34.5194 31.1228 34.6361L33.1228 35.3027C33.1928 35.3261 33.2642 35.3374 33.3335 35.3374C33.6128 35.3374 33.8728 35.1608 33.9662 34.8814C34.0828 34.532 33.8942 34.1547 33.5449 34.038Z" fill="#175993"/>
<path d="M38.6186 35.0889L37.2853 31.7556C37.2313 31.6202 37.1339 31.5063 37.0093 31.4316L33.6759 29.4315C33.3598 29.2422 32.9505 29.3442 32.7612 29.6602C32.5718 29.9762 32.6738 30.3855 32.9898 30.5749L36.1306 32.4596L37.3806 35.585C37.4853 35.8457 37.7353 36.0043 37.9999 36.0043C38.0825 36.0043 38.1665 35.989 38.2472 35.9556C38.5893 35.819 38.7553 35.4309 38.6186 35.0889Z" fill="#175993"/>
</svg>
