<svg width="34" height="34" viewBox="0 0 34 34" fill="none" xmlns="http://www.w3.org/2000/svg">
<g clip-path="url(#clip0)">
<path d="M31.4425 9.22506L31.4414 9.1986C31.4267 8.87202 31.4168 8.5265 31.4108 8.14207C31.3831 6.2674 29.8928 4.71671 28.0179 4.61191C24.1088 4.39376 21.0847 3.11908 18.5008 0.600573L18.4788 0.579562C17.636 -0.193187 16.3647 -0.193187 15.5216 0.579562L15.4996 0.600573C12.9157 3.11908 9.89164 4.39376 5.98251 4.61217C4.10783 4.71671 2.61733 6.2674 2.58957 8.14233C2.58387 8.52417 2.57375 8.86969 2.55896 9.1986L2.55741 9.26008C2.4814 13.2463 2.38698 18.2073 4.04661 22.7102C4.95918 25.1864 6.34125 27.3389 8.15419 29.1082C10.219 31.1232 12.9235 32.723 16.1924 33.8628C16.2988 33.8998 16.4093 33.9299 16.5219 33.9525C16.6806 33.9841 16.8404 34 17.0002 34C17.16 34 17.32 33.9841 17.4785 33.9525C17.5911 33.9299 17.7024 33.8996 17.8093 33.8622C21.0743 32.7204 23.776 31.1199 25.839 29.1051C27.6511 27.3352 29.0332 25.1822 29.9465 22.7055C31.6124 18.1891 31.5182 13.2188 31.4425 9.22506ZM28.0747 22.0152C26.3243 26.7612 22.7511 30.0205 17.1509 31.979C17.1309 31.9857 17.1097 31.9917 17.0876 31.9961C17.0298 32.0075 16.9709 32.0075 16.9123 31.9959C16.8905 31.9914 16.8692 31.9857 16.8495 31.979C11.2434 30.0242 7.66782 26.7666 5.91869 22.0204C4.38902 17.8698 4.47566 13.3158 4.55218 9.29821L4.5527 9.2759C4.56827 8.93064 4.57864 8.56904 4.58435 8.17164C4.5968 7.33923 5.25982 6.65053 6.09379 6.6041C8.30594 6.48062 10.2494 6.05313 12.0351 5.29725C13.8184 4.5424 15.4023 3.47834 16.8767 2.04439C16.9517 1.98109 17.049 1.98083 17.1237 2.04439C18.5984 3.47834 20.1822 4.5424 21.9654 5.29725C23.7511 6.05313 25.6945 6.48062 27.9069 6.6041C28.7408 6.65053 29.4039 7.33923 29.4161 8.1719C29.422 8.57138 29.4324 8.93298 29.448 9.2759C29.5242 13.2981 29.6088 17.8558 28.0747 22.0152Z" fill="#175993"/>
<path d="M16.9996 8.52734C12.3273 8.52734 8.52637 12.3286 8.52637 17.0006C8.52637 21.6729 12.3273 25.4742 16.9996 25.4742C21.6717 25.4742 25.4729 21.6729 25.4729 17.0006C25.4729 12.3286 21.6717 8.52734 16.9996 8.52734ZM16.9996 23.4789C13.4275 23.4789 10.5214 20.5728 10.5214 17.0006C10.5214 13.4284 13.4275 10.5224 16.9996 10.5224C20.5716 10.5224 23.4776 13.4284 23.4776 17.0006C23.4776 20.5728 20.5716 23.4789 16.9996 23.4789Z" fill="#175993"/>
<path d="M19.4352 14.37L15.4996 18.3057L14.4314 17.2374C14.0418 16.8478 13.4102 16.8478 13.0205 17.2374C12.6312 17.6271 12.6312 18.2587 13.0205 18.6481L14.7943 20.4218C14.9891 20.6166 15.2444 20.7139 15.4996 20.7139C15.7549 20.7139 16.0101 20.6166 16.2049 20.4218L20.8461 15.7807C21.2355 15.391 21.2355 14.7594 20.8461 14.37C20.4565 13.9802 19.8248 13.9802 19.4352 14.37Z" fill="#175993"/>
</g>
<defs>
<clipPath id="clip0">
<rect width="34" height="34" fill="white"/>
</clipPath>
</defs>
</svg>
