<svg width="23" height="20" viewBox="0 0 23 20" fill="none" xmlns="http://www.w3.org/2000/svg">
<path d="M0 16.875C0 17.9102 0.858507 18.75 1.91667 18.75H21.0833C22.1415 18.75 23 17.9102 23 16.875V10H0V16.875ZM7.66667 14.2188C7.66667 13.9609 7.88229 13.75 8.14583 13.75H13.5764C13.8399 13.75 14.0556 13.9609 14.0556 14.2188V15.7812C14.0556 16.0391 13.8399 16.25 13.5764 16.25H8.14583C7.88229 16.25 7.66667 16.0391 7.66667 15.7812V14.2188ZM2.55556 14.2188C2.55556 13.9609 2.77118 13.75 3.03472 13.75H5.90972C6.17326 13.75 6.38889 13.9609 6.38889 14.2188V15.7812C6.38889 16.0391 6.17326 16.25 5.90972 16.25H3.03472C2.77118 16.25 2.55556 16.0391 2.55556 15.7812V14.2188ZM23 3.125V5H0V3.125C0 2.08984 0.858507 1.25 1.91667 1.25H21.0833C22.1415 1.25 23 2.08984 23 3.125Z" fill="#6B6969"/>
</svg>
