<svg width="23" height="17" viewBox="0 0 23 17" fill="none" xmlns="http://www.w3.org/2000/svg">
<path d="M22.425 11.6875H21.85V8.09824C21.85 7.67656 21.6667 7.27148 21.3433 6.97266L17.7531 3.65566C17.4297 3.35684 16.9912 3.1875 16.5348 3.1875H14.95V1.59375C14.95 0.713867 14.1773 0 13.225 0H4.025C3.07266 0 2.3 0.713867 2.3 1.59375V3.1875H0.2875C0.129375 3.1875 0 3.30703 0 3.45312V3.98438C0 4.13047 0.129375 4.25 0.2875 4.25H10.0625C10.2206 4.25 10.35 4.36953 10.35 4.51562V5.04688C10.35 5.19297 10.2206 5.3125 10.0625 5.3125H1.4375C1.27937 5.3125 1.15 5.43203 1.15 5.57812V6.10938C1.15 6.25547 1.27937 6.375 1.4375 6.375H8.9125C9.07062 6.375 9.2 6.49453 9.2 6.64062V7.17188C9.2 7.31797 9.07062 7.4375 8.9125 7.4375H0.2875C0.129375 7.4375 0 7.55703 0 7.70312V8.23438C0 8.38047 0.129375 8.5 0.2875 8.5H7.7625C7.92062 8.5 8.05 8.61953 8.05 8.76562V9.29688C8.05 9.44297 7.92062 9.5625 7.7625 9.5625H2.3V13.8125C2.3 15.5723 3.84531 17 5.75 17C7.65469 17 9.2 15.5723 9.2 13.8125H13.8C13.8 15.5723 15.3453 17 17.25 17C19.1547 17 20.7 15.5723 20.7 13.8125H22.425C22.7412 13.8125 23 13.5734 23 13.2812V12.2188C23 11.9266 22.7412 11.6875 22.425 11.6875ZM5.75 15.4062C4.79766 15.4062 4.025 14.6924 4.025 13.8125C4.025 12.9326 4.79766 12.2188 5.75 12.2188C6.70234 12.2188 7.475 12.9326 7.475 13.8125C7.475 14.6924 6.70234 15.4062 5.75 15.4062ZM17.25 15.4062C16.2977 15.4062 15.525 14.6924 15.525 13.8125C15.525 12.9326 16.2977 12.2188 17.25 12.2188C18.2023 12.2188 18.975 12.9326 18.975 13.8125C18.975 14.6924 18.2023 15.4062 17.25 15.4062ZM20.125 8.5H14.95V4.78125H16.5348L20.125 8.09824V8.5Z" fill="#6B6969"/>
</svg>
