<svg width="34" height="35" viewBox="0 0 34 35" fill="none" xmlns="http://www.w3.org/2000/svg">
<path d="M0.457031 0.713867H32.9234V18.7194L31.3164 21.299L32.9234 23.5948V34.068H0.457031V17.0943L1.4614 15.9077L0.457031 14.7726V0.713867Z" fill="#016FD0"/>
<path d="M6.75977 23.955V18.7185H12.1567L12.7358 19.494L13.334 18.7185H32.9236V23.5939C32.9236 23.5939 32.4113 23.9498 31.8188 23.955H20.9716L20.3188 23.1296V23.955H18.1795V22.546C18.1795 22.546 17.8872 22.7426 17.2554 22.7426H16.5273V23.955H13.2882L12.71 23.1629L12.1229 23.955H6.75977Z" fill="white"/>
<path d="M0.457031 14.7723L1.67407 11.8574H3.77881L4.4695 13.4902V11.8574H7.08588L7.49705 13.0376L7.89566 11.8574H19.6405V12.4507C19.6405 12.4507 20.2579 11.8574 21.2726 11.8574L25.0834 11.8711L25.7622 13.4826V11.8574H27.9517L28.5543 12.7831V11.8574H30.7639V17.094H28.5543L27.9768 16.1653V17.094H24.7599L24.4364 16.2685H23.5716L23.2534 17.094H21.0718C20.1987 17.094 19.6405 16.5128 19.6405 16.5128V17.094H16.3512L15.6984 16.2685V17.094H3.46701L3.14373 16.2685H2.28167L1.96067 17.094H0.457031V14.7723Z" fill="white"/>
<path d="M2.10442 12.5034L0.462891 16.4244H1.53161L1.83449 15.6392H3.59529L3.8966 16.4244H4.98886L3.3489 12.5034H2.10442ZM2.71175 13.4159L3.24847 14.788H2.17347L2.71175 13.4159Z" fill="#016FD0"/>
<path d="M5.10156 16.4244V12.5034L6.62027 12.5092L7.5036 15.0372L8.36578 12.5034H9.87234V16.4244H8.91819V13.5353L7.90676 16.4244H7.06997L6.05572 13.5353V16.4244H5.10156Z" fill="#016FD0"/>
<path d="M10.5264 16.4244V12.5034H13.6399V13.3805H11.4906V14.0512H13.5897V14.8766H11.4906V15.5731H13.6399V16.4244H10.5264Z" fill="#016FD0"/>
<path d="M14.1914 12.5034V16.4244H15.1456V15.0314H15.5473L16.6913 16.4244H17.8574L16.6019 14.9798C17.1171 14.9351 17.6486 14.4808 17.6486 13.7755C17.6486 12.9504 17.0183 12.5034 16.3147 12.5034H14.1914ZM15.1456 13.3805H16.2362C16.4979 13.3805 16.6882 13.5907 16.6882 13.7932C16.6882 14.0537 16.4416 14.2059 16.2504 14.2059H15.1456V13.3805Z" fill="#016FD0"/>
<path d="M19.0133 16.4244H18.0391V12.5034H19.0133V16.4244Z" fill="#016FD0"/>
<path d="M21.3231 16.4244H21.1128C20.0953 16.4244 19.4775 15.6009 19.4775 14.48C19.4775 13.3315 20.0884 12.5034 21.3733 12.5034H22.4279V13.4321H21.3347C20.8131 13.4321 20.4442 13.8503 20.4442 14.4897C20.4442 15.249 20.866 15.568 21.4737 15.568H21.7248L21.3231 16.4244Z" fill="#016FD0"/>
<path d="M23.3993 12.5034L21.7578 16.4244H22.8265L23.1294 15.6392H24.8902L25.1915 16.4244H26.2838L24.6438 12.5034H23.3993ZM24.0067 13.4159L24.5434 14.788H23.4684L24.0067 13.4159Z" fill="#016FD0"/>
<path d="M26.3945 16.4244V12.5034H27.6076L29.1566 14.9669V12.5034H30.1107V16.4244H28.9369L27.3487 13.8964V16.4244H26.3945Z" fill="#016FD0"/>
<path d="M7.41309 23.2846V19.3636H10.5266V20.2407H8.37727V20.9114H10.4764V21.7368H8.37727V22.4333H10.5266V23.2846H7.41309Z" fill="#016FD0"/>
<path d="M22.6689 23.2846V19.3636H25.7825V20.2407H23.6331V20.9114H25.7222V21.7368H23.6331V22.4333H25.7825V23.2846H22.6689Z" fill="#016FD0"/>
<path d="M10.6464 23.2846L12.1624 21.3483L10.6104 19.3636H11.8125L12.7368 20.5905L13.6643 19.3636H14.8193L13.2876 21.3241L14.8064 23.2846H13.6045L12.707 22.077L11.8313 23.2846H10.6464Z" fill="#016FD0"/>
<path d="M14.9199 19.3645V23.2855H15.8992V22.0473H16.9036C17.7534 22.0473 18.3976 21.5841 18.3976 20.6833C18.3976 19.9371 17.8923 19.3645 17.0275 19.3645H14.9199ZM15.8992 20.2512H16.9569C17.2315 20.2512 17.4277 20.4241 17.4277 20.7027C17.4277 20.9643 17.2324 21.1541 16.9538 21.1541H15.8992V20.2512Z" fill="#016FD0"/>
<path d="M18.8115 19.3636V23.2846H19.7657V21.8916H20.1674L21.3115 23.2846H22.4775L21.222 21.84C21.7373 21.7954 22.2688 21.341 22.2688 20.6357C22.2688 19.8106 21.6384 19.3636 20.9348 19.3636H18.8115ZM19.7657 20.2407H20.8564C21.118 20.2407 21.3083 20.451 21.3083 20.6534C21.3083 20.9139 21.0617 21.0662 20.8705 21.0662H19.7657V20.2407Z" fill="#016FD0"/>
<path d="M26.2247 23.2846V22.4333H28.1342C28.4168 22.4333 28.5391 22.2765 28.5391 22.1044C28.5391 21.9396 28.4172 21.773 28.1342 21.773H27.2713C26.5212 21.773 26.1035 21.3035 26.1035 20.5986C26.1035 19.9699 26.4861 19.3636 27.6007 19.3636H29.4587L29.057 20.2459H27.45C27.1428 20.2459 27.0483 20.4115 27.0483 20.5696C27.0483 20.7321 27.1651 20.9114 27.3998 20.9114H28.3037C29.1399 20.9114 29.5027 21.3986 29.5027 22.0367C29.5027 22.7227 29.0984 23.2846 28.2582 23.2846H26.2247Z" fill="#016FD0"/>
<path d="M29.7266 23.2846V22.4333H31.6362C31.9187 22.4333 32.0411 22.2765 32.0411 22.1044C32.0411 21.9396 31.9191 21.773 31.6362 21.773H30.7733C30.0232 21.773 29.6055 21.3035 29.6055 20.5986C29.6055 19.9699 29.988 19.3636 31.1026 19.3636H32.9607L32.5589 20.2459H30.952C30.6448 20.2459 30.5502 20.4115 30.5502 20.5696C30.5502 20.7321 30.6671 20.9114 30.9017 20.9114H31.8057C32.6418 20.9114 33.0046 21.3986 33.0046 22.0367C33.0046 22.7227 32.6003 23.2846 31.7602 23.2846H29.7266Z" fill="#016FD0"/>
</svg>
